<svg width="156" height="37" viewBox="0 0 156 37" fill="none" xmlns="http://www.w3.org/2000/svg">
<path d="M21.8737 31.3731H47.6301V5.6167H21.8737V31.3731ZM42.8008 15.9796H37.3678V10.5466H42.8008V15.9796ZM26.9042 10.5466H32.3372V21.0102H42.8008V26.4432H26.9042V10.5466ZM64.5328 5.6167C62.0175 5.6167 59.5022 6.42159 57.3894 7.83014C55.2766 9.2387 53.5662 11.2509 52.6607 13.6656C51.6545 15.9796 51.4533 18.5955 51.9564 21.1108C52.4594 23.6261 53.6668 25.9401 55.4778 27.7511C57.2888 29.5621 59.6028 30.7695 62.1181 31.2725C64.6334 31.7756 67.2493 31.4738 69.5633 30.5683C71.9025 29.5523 73.9201 27.9173 75.3988 25.8395C76.8073 23.7267 77.6122 21.2114 77.6122 18.6961C77.6122 15.2754 76.2037 11.9552 73.789 9.54053C71.2737 6.92464 67.9535 5.6167 64.5328 5.6167ZM64.5328 26.4432C62.923 26.4432 61.4138 25.9401 60.1059 25.1353C58.7979 24.2298 57.7918 23.0224 57.1882 21.6139C56.5845 20.2053 56.3833 18.5955 56.7857 16.9858C57.0875 15.4766 57.8924 14.068 58.9992 12.9613C60.1059 11.8546 61.5144 11.0497 63.0236 10.7479C64.5328 10.446 66.1425 10.6473 67.6517 11.1503C69.0603 11.754 70.3682 12.7601 71.1731 14.068C72.0786 15.376 72.481 16.8851 72.481 18.4949C72.481 20.6078 71.6762 22.62 70.167 24.1291C68.6578 25.6383 66.6456 26.4432 64.5328 26.4432ZM123.591 5.6167C121.076 5.6167 118.561 6.42159 116.448 7.83014C114.335 9.2387 112.625 11.2509 111.719 13.6656C110.713 15.9796 110.512 18.5955 111.015 21.1108C111.518 23.6261 112.725 25.9401 114.536 27.7511C116.347 29.5621 118.662 30.7695 121.177 31.2725C123.692 31.7756 126.308 31.4738 128.622 30.5683C130.961 29.5523 132.979 27.9173 134.457 25.8395C135.866 23.7267 136.671 21.2114 136.671 18.6961C136.671 15.2754 135.262 11.9552 132.848 9.54053C130.332 6.92464 127.012 5.6167 123.591 5.6167ZM123.591 26.4432C121.982 26.4432 120.473 25.9401 119.165 25.1353C117.857 24.2298 116.851 23.0224 116.247 21.6139C115.643 20.2053 115.442 18.5955 115.844 16.9858C116.146 15.4766 116.951 14.068 118.058 12.9613C119.165 11.8546 120.573 11.0497 122.082 10.7479C123.591 10.446 125.201 10.6473 126.71 11.1503C128.119 11.754 129.427 12.7601 130.232 14.068C131.137 15.376 131.54 16.8851 131.54 18.4949C131.54 20.6078 130.735 22.62 129.226 24.1291C127.717 25.6383 125.704 26.4432 123.591 26.4432ZM94.1124 5.6167C91.5972 5.6167 89.0819 6.42159 86.969 7.83014C84.8562 9.2387 83.1458 11.2509 82.2403 13.6656C81.2342 15.9796 81.033 18.5955 81.536 21.1108C82.0391 23.6261 83.2464 25.9401 85.0574 27.7511C86.8684 29.5621 89.1825 30.7695 91.6978 31.2725C94.2131 31.7756 96.8289 31.4738 99.143 30.5683C101.482 29.5523 103.5 27.9173 104.978 25.8395C106.387 23.7267 107.192 21.2114 107.192 18.6961C107.192 15.2754 105.783 11.9552 103.369 9.54053C100.753 6.92464 97.5332 5.6167 94.1124 5.6167ZM94.1124 26.4432C92.6033 26.4432 91.1947 26.0408 89.9874 25.2359C88.78 24.431 87.7739 23.4249 87.0697 22.1169C86.3654 20.809 86.0635 19.4004 86.2648 17.8913C86.3654 16.4827 86.8684 15.0741 87.7739 13.8668C88.6794 12.6595 89.7862 11.754 91.1947 11.1503C92.5027 10.5466 94.0118 10.446 95.4204 10.6473C96.8289 10.8485 98.2375 11.4521 99.3442 12.4583C100.451 13.3638 101.256 14.6717 101.759 15.9796H94.2131V20.9096H101.759C101.256 22.5194 100.25 23.8273 98.8412 24.8334C97.332 25.9401 95.7222 26.4432 94.1124 26.4432Z" fill="#B4B7C9"/>
</svg>
