<svg width="156" height="37" viewBox="0 0 156 37" fill="none" xmlns="http://www.w3.org/2000/svg">
<path d="M78.0147 24.9341H72.8835V11.1504H78.0147V24.9341ZM73.3866 24.4311H77.5117V11.6535H73.3866V24.4311ZM85.1581 24.9341H80.1276V11.1504H90.6917C92.2009 11.0498 93.71 11.4522 94.9174 12.3577C95.4081 12.8601 95.8157 13.4375 96.1247 14.0681C96.4265 14.7724 96.5272 15.4767 96.4265 16.181C96.5272 17.3883 96.1247 18.5956 95.3198 19.6017C94.4143 20.7085 92.9052 21.2115 90.7923 21.2115H85.2587L85.1581 24.9341ZM80.6306 24.4311H84.6551V20.7085H84.9569H90.7923C92.7039 20.7085 94.2131 20.2054 95.018 19.2999C95.7223 18.3944 96.0241 17.3883 96.0241 16.2816C96.1247 15.6779 96.0241 14.9736 95.8229 14.37C95.6217 13.7663 95.2192 13.2632 94.7162 12.7602C93.6094 11.9553 92.2009 11.5529 90.7923 11.6535H80.7312L80.6306 24.4311ZM89.585 18.0926H84.6551V14.37H89.6856C90.0881 14.37 90.3899 14.37 90.6917 14.4706C90.9936 14.5712 91.2954 14.7724 91.5972 15.0742C91.7984 15.3761 91.899 15.7785 91.899 16.2816C91.899 16.684 91.7984 16.9859 91.6978 17.3883C91.4966 17.6901 91.1948 17.8914 90.7923 17.992C90.3899 18.0926 89.9874 18.1932 89.585 18.0926ZM85.1581 17.5895H89.585C90.3899 17.5895 90.8929 17.3883 91.1948 17.0865C91.2954 16.7846 91.396 16.5834 91.396 16.2816C91.396 15.9797 91.396 15.6779 91.1948 15.3761C90.9936 14.9736 90.4905 14.873 89.6856 14.873H85.1581V17.5895ZM105.582 25.1354C101.055 25.1354 98.3382 24.0286 97.332 21.7146C97.1308 21.3121 97.0302 20.8091 97.0302 20.306V20.0042H102.363V20.2054C102.363 20.4066 102.463 20.6079 102.664 20.8091C102.866 21.1109 103.57 21.5134 105.985 21.5134C108.802 21.5134 108.802 21.0103 108.802 20.7085C108.802 20.306 108.5 20.1048 106.186 19.9036H105.783L103.268 19.7024C99.0424 19.2999 97.1308 17.992 97.1308 15.4767C97.1308 12.7602 100.35 11.0498 105.28 11.0498C109.305 11.0498 111.921 12.1565 113.027 14.2694C113.329 14.7724 113.43 15.2755 113.53 15.8791V16.181H108.198V15.9797C108.198 15.7785 108.097 15.6779 107.997 15.4767C107.796 15.1749 107.192 14.7724 105.18 14.7724C102.765 14.7724 102.463 15.0742 102.463 15.3761C102.463 15.7785 103.268 15.9797 105.683 16.2816L108.902 16.5834C112.424 16.9859 114.033 18.2938 114.033 20.7085C113.933 22.6201 112.524 25.1354 105.582 25.1354ZM97.5333 20.5072C97.6339 20.8091 97.6339 21.2115 97.8351 21.5134C98.7406 23.6262 101.356 24.6323 105.582 24.6323C109.204 24.6323 113.43 23.928 113.43 20.5072C113.43 18.2938 112.021 17.1871 108.802 16.8852C108.198 16.7846 106.588 16.684 105.582 16.5834C102.966 16.2816 101.86 16.181 101.86 15.1749C101.86 14.1687 102.966 14.0681 105.079 14.0681C106.789 14.0681 107.796 14.37 108.299 14.9736C108.399 15.0742 108.5 15.2755 108.6 15.4767H112.927C112.826 15.0742 112.726 14.6718 112.524 14.37C111.518 12.4584 109.104 11.4522 105.18 11.4522C100.552 11.4522 97.5333 12.9614 97.5333 15.3761C97.5333 17.6901 99.2437 18.7969 103.167 19.0987C103.671 19.0987 104.777 19.1993 105.683 19.2999H106.085C108.198 19.5011 109.204 19.7024 109.204 20.6079C109.204 21.7146 107.997 21.9158 105.884 21.9158C103.972 21.9158 102.664 21.614 102.262 21.0103C102.161 20.8091 101.96 20.6079 101.96 20.4066H97.5333V20.5072ZM123.491 25.1354C118.259 25.1354 115.341 23.0225 115.341 19.1993V11.251H120.473V19.1993C120.473 20.5072 121.68 21.3121 123.692 21.3121C125.704 21.3121 126.912 20.5072 126.912 19.1993V11.251H131.942V19.5011C131.942 23.0225 128.823 25.1354 123.491 25.1354ZM115.844 11.6535V19.0987C115.844 23.8274 120.674 24.5317 123.491 24.5317C126.409 24.5317 131.439 23.8274 131.439 19.5011V11.6535H127.415V19.0987C127.415 20.6079 126.006 21.7146 123.692 21.7146C121.378 21.7146 119.97 20.7085 119.97 19.0987V11.6535H115.844ZM153.272 24.9341H148.442V18.6962L145.726 24.9341H141.5L138.784 18.6962V24.9341H133.954V11.1504H140.293L143.613 18.6962L147.034 11.1504H153.171L153.272 24.9341ZM148.946 24.4311H152.769V11.6535H147.436L143.613 20.0042L139.991 11.6535H134.458V24.4311H138.281V16.2816L141.802 24.4311H145.324L148.845 16.2816L148.946 24.4311ZM7.98938 11.3516H3.36127V24.6323H16.0383V21.1109H7.98938V11.3516ZM25.2945 11.0498C19.459 11.0498 16.3401 13.8669 16.3401 17.8914C16.3401 22.5195 19.5597 24.8335 25.2945 24.8335C31.5324 24.8335 34.2489 22.117 34.2489 17.8914C34.1483 13.6657 31.2305 11.0498 25.2945 11.0498ZM25.2945 14.5712C25.6969 14.5712 26.0994 14.5712 26.5018 14.6718L21.3707 19.803C21.1694 19.2999 20.9682 18.6962 21.0688 18.0926C20.9682 15.8791 21.9743 14.5712 25.2945 14.5712ZM25.2945 21.5134C24.892 21.5134 24.4896 21.5134 24.1878 21.4127L29.3189 16.2816C29.5202 16.7846 29.6208 17.3883 29.6208 17.992C29.6208 20.0042 28.6147 21.4127 25.2945 21.5134ZM43.3039 19.7024H48.0326C47.932 20.0042 47.8314 20.306 47.6302 20.6079C46.624 21.4127 45.4167 21.8152 44.1088 21.7146C43.5051 21.8152 42.8008 21.7146 42.1972 21.5134C41.5935 21.3121 41.0904 21.0103 40.5874 20.5072C40.0843 19.803 39.8831 18.9981 39.9837 18.0926C39.8831 17.1871 40.1849 16.2816 40.688 15.5773C41.3923 14.873 42.499 14.4706 44.1088 14.4706C45.1149 14.37 46.2216 14.6718 47.0265 15.2755C47.3283 15.4767 47.5295 15.7785 47.6302 16.0804H51.9564C51.9564 15.5773 51.7552 14.9736 51.554 14.4706C50.5479 12.3577 48.0326 11.0498 43.9075 11.0498C40.2855 11.0498 37.8709 12.1565 36.5629 13.7663C35.6574 14.9736 35.255 16.3822 35.255 17.8914C35.1544 19.4005 35.6574 20.9097 36.4623 22.117C37.7703 23.8274 40.0843 24.6323 43.002 24.6323C44.9137 24.7329 46.7247 24.2299 48.2338 23.1231L48.3344 24.4311H51.9564V16.5834H43.1027V19.7024H43.3039ZM62.42 11.0498C56.5845 11.0498 53.4656 13.8669 53.4656 17.8914C53.4656 22.5195 56.6852 24.8335 62.42 24.8335C68.6579 24.8335 71.3744 22.117 71.3744 17.8914C71.2738 13.6657 68.356 11.0498 62.42 11.0498ZM62.42 14.5712C62.8224 14.5712 63.2249 14.5712 63.6273 14.6718L58.4962 19.803C58.2949 19.2999 58.1943 18.6962 58.1943 18.0926C58.0937 15.8791 59.0998 14.5712 62.42 14.5712ZM62.42 21.4127C62.0175 21.4127 61.6151 21.4127 61.2127 21.3121L66.3438 16.181C66.545 16.684 66.7463 17.2877 66.6457 17.8914C66.7463 20.0042 65.7402 21.4127 62.42 21.4127Z" fill="#B4B7C9"/>
</svg>
