<svg width="156" height="37" viewBox="0 0 156 37" fill="none" xmlns="http://www.w3.org/2000/svg">
<path d="M26.703 8.13219V3.80591H13.2211V33.1844H26.703V28.9587C23.9865 28.9587 21.27 27.852 19.3584 25.9404C17.4468 24.0287 16.3401 21.3122 16.3401 18.5957C16.3401 15.8792 17.4468 13.1627 19.3584 11.2511C21.3706 9.1383 23.9865 8.13219 26.703 8.13219Z" fill="#B4B7C9"/>
<path d="M26.703 8.13208V28.9586C29.4195 28.9586 32.136 27.8519 34.0476 25.9402C35.9592 24.0286 37.066 21.3121 37.066 18.5956C37.066 15.8791 35.9592 13.1626 34.0476 11.251C32.136 9.13819 29.5201 8.13208 26.703 8.13208ZM44.7124 10.748H47.7307V25.236H44.7124V10.748ZM49.4411 20.306C49.4411 19.2999 49.743 18.1932 50.3466 17.3883C50.9503 16.4828 51.7552 15.8791 52.7613 15.4767C53.7674 15.0742 54.7735 14.9736 55.7796 15.1749C56.7857 15.3761 57.7919 15.8791 58.4961 16.5834C59.2004 17.2877 59.7035 18.2938 59.9047 19.2999C60.1059 20.306 60.0053 21.4127 59.6029 22.3182C59.2004 23.3244 58.4961 24.1292 57.6912 24.6323C56.8302 25.2171 55.8144 25.5324 54.7735 25.5378C54.0692 25.5378 53.365 25.4372 52.7613 25.1354C52.1576 24.8335 51.554 24.5317 51.0509 24.0286C50.5479 23.5256 50.1454 22.9219 49.9442 22.3182C49.5417 21.614 49.4411 20.9097 49.4411 20.306ZM56.987 20.306C56.987 19.9036 56.7857 19.4005 56.5845 19.0987C56.2827 18.6962 55.9809 18.495 55.5784 18.2938C55.176 18.0926 54.6729 18.0926 54.2705 18.1932C53.868 18.2938 53.4656 18.495 53.0631 18.7969C52.7613 19.0987 52.5601 19.5011 52.4595 20.0042C52.3589 20.4066 52.4595 20.9097 52.5601 21.3121C52.7613 21.7146 53.0631 22.117 53.365 22.3182C53.7674 22.5195 54.1699 22.7207 54.6729 22.7207C54.9747 22.7207 55.2766 22.6201 55.5784 22.5195C55.8802 22.4189 56.0815 22.2176 56.2827 22.0164C56.4839 21.8152 56.6851 21.5134 56.7857 21.2115C56.987 20.9097 56.987 20.6079 56.987 20.306ZM71.8774 15.2755V24.7329C71.8774 28.0531 69.2615 29.4616 66.6456 29.4616C65.7401 29.5622 64.734 29.361 63.9291 28.9586C63.1242 28.5561 62.42 27.8519 61.9169 27.047L64.4322 25.5378C64.6334 25.9402 64.9352 26.3427 65.3377 26.5439C65.7464 26.7389 66.1928 26.8419 66.6456 26.8457C66.9475 26.8457 67.2493 26.8457 67.5511 26.7451C67.853 26.6445 68.0542 26.5439 68.356 26.3427C68.5572 26.1415 68.7585 25.9402 68.8591 25.6384C68.9597 25.3366 69.0603 25.0347 68.9597 24.7329V23.8274C68.6169 24.2691 68.1666 24.6155 67.6518 24.8335C67.1487 25.0347 66.6456 25.1354 66.042 25.1354C64.734 25.1354 63.4261 24.6323 62.5206 23.6262C61.6151 22.7207 61.0114 21.4127 61.0114 20.1048C61.0114 18.7969 61.5145 17.4889 62.5206 16.5834C63.4261 15.6779 64.734 15.0742 66.042 15.0742C66.5924 15.0768 67.1378 15.1791 67.6518 15.3761C68.1548 15.5773 68.5572 15.9797 68.9597 16.3822V15.3761L71.8774 15.2755ZM68.9597 20.0042C68.9597 19.5011 68.8591 18.9981 68.5573 18.5956C68.2554 18.1932 67.9536 17.8914 67.4505 17.6901C67.0159 17.4699 66.5208 17.3991 66.042 17.4889C65.5389 17.5895 65.1365 17.7907 64.734 18.0926C64.4322 18.3944 64.1304 18.8975 64.0297 19.2999C63.9291 19.803 63.9291 20.306 64.1304 20.7085C64.3316 21.1109 64.6334 21.5134 65.0359 21.8152C65.4383 22.117 65.9414 22.2176 66.3438 22.2176C66.6456 22.2176 66.9475 22.2176 67.2493 22.117C67.5511 22.0164 67.853 21.8152 68.0542 21.614C68.2554 21.4127 68.4566 21.1109 68.5573 20.8091C68.9597 20.7085 68.9597 20.4066 68.9597 20.0042ZM73.5878 20.306C73.5878 19.2999 73.8896 18.1932 74.4933 17.3883C75.097 16.4828 75.9019 15.8791 76.908 15.4767C77.9141 15.0742 78.9202 14.9736 79.9263 15.1749C80.9324 15.3761 81.9385 15.8791 82.6428 16.5834C83.3471 17.2877 83.8501 18.2938 84.0514 19.2999C84.2526 20.306 84.152 21.4127 83.7495 22.3182C83.3471 23.3244 82.6428 24.1292 81.8379 24.7329C80.9768 25.3178 79.9611 25.633 78.9202 25.6384C78.2159 25.6384 77.5116 25.5378 76.908 25.236C76.3043 24.9341 75.7006 24.6323 75.1976 24.1292C74.6945 23.6262 74.2921 23.0225 74.0909 22.4189C73.7561 21.7651 73.5836 21.0405 73.5878 20.306ZM81.1336 20.306C81.1336 19.9036 80.9324 19.4005 80.7312 18.9981C80.4294 18.5956 80.1275 18.3944 79.7251 18.1932C79.3226 17.992 78.8196 17.992 78.4171 18.0926C78.0147 18.1932 77.6123 18.3944 77.2098 18.6962C76.8074 18.9981 76.7068 19.4005 76.6061 19.9036C76.5055 20.306 76.6061 20.8091 76.7068 21.2115C76.908 21.614 77.2098 22.0164 77.5116 22.2176C77.9141 22.4189 78.3165 22.6201 78.8196 22.6201C79.1214 22.6201 79.4233 22.5195 79.7251 22.4189C80.0269 22.3182 80.2281 22.117 80.4294 21.9158C80.6306 21.7146 80.8318 21.4127 80.9324 21.1109C81.1336 20.9097 81.1336 20.6079 81.1336 20.306ZM85.4599 12.6596C85.4518 12.3008 85.5575 11.9486 85.7618 11.6535C85.963 11.3516 86.2648 11.1504 86.5666 10.9492C86.8685 10.8486 87.2709 10.748 87.5727 10.8486C87.8746 10.9492 88.277 11.0498 88.4782 11.3516C88.6795 11.5529 88.8807 11.9553 88.9813 12.2571C89.0819 12.559 88.9813 12.9614 88.8807 13.2632C88.7801 13.5651 88.4783 13.8669 88.1764 14.0681C87.8813 14.2724 87.5291 14.3781 87.1703 14.37C86.6673 14.37 86.2648 14.1687 85.8624 13.8669C85.6611 13.5651 85.5605 13.062 85.4599 12.6596ZM85.7618 15.2755H88.7801V25.236H85.7618V15.2755ZM101.759 20.306C101.759 21.0103 101.658 21.614 101.457 22.2176C101.256 22.8213 100.853 23.425 100.451 23.928C100.049 24.4311 99.4449 24.8335 98.8412 25.1354C98.2375 25.4372 97.6339 25.5378 96.9296 25.6384C96.3259 25.6384 95.8229 25.5378 95.3198 25.3366C94.8167 25.1354 94.3137 24.8335 93.9113 24.4311V29.361H90.8929V15.2755H93.9113V16.181C94.3137 15.7785 94.7161 15.4767 95.3198 15.2755C95.8338 15.0785 96.3792 14.9762 96.9296 14.9736C97.6339 14.9736 98.2375 15.1749 98.8412 15.4767C99.4449 15.7785 99.9479 16.181 100.451 16.684C100.853 17.1871 101.256 17.7907 101.457 18.3944C101.658 18.8975 101.759 19.6017 101.759 20.306ZM98.7406 20.306C98.7406 19.803 98.5394 19.4005 98.3381 18.9981C98.0363 18.5956 97.7345 18.2938 97.2314 18.1932C96.829 17.992 96.3259 17.992 95.8229 18.0926C95.3198 18.1932 94.9174 18.3944 94.6155 18.7969C94.3137 19.0987 94.1125 19.6017 94.0119 20.0042C93.9112 20.5072 94.0119 20.9097 94.1125 21.4127C94.3137 21.8152 94.6155 22.2176 95.018 22.4189C95.4204 22.7207 95.8229 22.8213 96.3259 22.8213C96.6277 22.8213 96.9296 22.8213 97.2314 22.6201C97.5333 22.5195 97.8351 22.3182 98.0363 22.117C98.2375 21.9158 98.4387 21.614 98.5394 21.3121C98.7406 20.9097 98.7406 20.6079 98.7406 20.306ZM110.915 22.2176C110.915 24.5317 108.902 25.4372 106.789 25.4372C105.884 25.5378 105.079 25.3366 104.274 24.9341C103.469 24.5317 102.866 23.8274 102.463 23.1231L105.079 21.614C105.18 22.0164 105.381 22.3182 105.683 22.5195C105.984 22.7106 106.332 22.815 106.689 22.8213C107.393 22.8213 107.796 22.6201 107.796 22.2176C107.796 21.1109 102.866 21.7146 102.866 18.2938C102.866 16.0804 104.677 15.0742 106.789 15.0742C107.594 15.0742 108.399 15.1749 109.104 15.5773C109.808 15.9797 110.411 16.4828 110.814 17.1871L108.198 18.5956C108.097 18.2938 107.896 18.0926 107.695 17.992C107.494 17.7907 107.192 17.7907 106.89 17.7907C106.387 17.7907 106.085 17.992 106.085 18.2938C105.985 19.2999 110.915 18.5956 110.915 22.2176ZM121.881 15.2755V25.236H118.863V24.3305C118.561 24.7329 118.058 25.0347 117.555 25.3366C117.052 25.5378 116.549 25.6384 115.945 25.6384C113.933 25.6384 112.222 24.2299 112.222 21.5134V15.3761H115.241V21.0103C115.241 21.2115 115.241 21.5134 115.341 21.7146C115.442 21.9158 115.543 22.117 115.744 22.3182C115.945 22.5195 116.146 22.6201 116.348 22.7207C116.549 22.8213 116.851 22.8213 117.052 22.8213C118.159 22.8213 118.863 22.2176 118.863 20.8091V15.3761H121.881V15.2755ZM138.985 19.0987V25.236H135.967V19.4005C135.967 18.3944 135.464 17.7907 134.558 17.7907C133.653 17.7907 132.948 18.495 132.948 19.7024V25.3366H129.93V19.5011C129.93 18.495 129.427 17.8914 128.521 17.8914C127.616 17.8914 126.912 18.5956 126.912 19.803V25.4372H123.893V15.4767H126.912V16.3822C127.222 15.9735 127.64 15.6599 128.119 15.4767C128.622 15.2755 129.125 15.1749 129.628 15.1749C130.131 15.1749 130.634 15.2755 131.137 15.4767C131.64 15.6779 131.942 16.0804 132.244 16.4828C132.587 16.0411 133.037 15.6947 133.552 15.4767C134.066 15.2797 134.611 15.1774 135.162 15.1749C137.476 14.9736 138.985 16.684 138.985 19.0987ZM141.5 15.1749C142.086 15.1696 142.646 14.9347 143.06 14.5208C143.474 14.1068 143.709 13.5468 143.714 12.9614C143.709 12.376 143.474 11.816 143.06 11.4021C142.646 10.9881 142.086 10.7532 141.5 10.748C140.915 10.7532 140.355 10.9881 139.941 11.4021C139.527 11.816 139.292 12.376 139.287 12.9614C139.292 13.5468 139.527 14.1068 139.941 14.5208C140.355 14.9347 140.915 15.1696 141.5 15.1749Z" fill="#B4B7C9"/>
</svg>
