<svg width="156" height="37" viewBox="0 0 156 37" fill="none" xmlns="http://www.w3.org/2000/svg">
<path d="M54.0692 12.5589H57.0876V24.7329H54.0692V12.5589ZM58.2949 20.1047C58.2949 17.0864 60.1059 15.2754 63.0236 15.2754C65.9414 15.2754 67.7524 17.0864 67.7524 20.1047C67.7524 23.1231 65.9414 24.9341 63.0236 24.9341C60.1059 24.9341 58.2949 23.2237 58.2949 20.1047ZM64.6334 20.1047C64.6334 18.495 64.0297 17.4889 62.923 17.4889C61.8163 17.4889 61.2126 18.495 61.2126 20.1047C61.2126 21.7145 61.8163 22.7206 62.923 22.7206C64.0297 22.7206 64.6334 21.8151 64.6334 20.1047ZM68.8591 25.3365H71.7768C71.8379 25.4969 71.9322 25.6426 72.0536 25.764C72.175 25.8854 72.3207 25.9797 72.4811 26.0408C72.7829 26.242 73.0847 26.242 73.4872 26.242C74.5939 26.242 75.1976 25.6384 75.1976 24.7329V23.0225H75.097C74.8958 23.5255 74.4933 23.928 73.9902 24.2298C73.4872 24.5316 72.9841 24.6322 72.3805 24.6322C70.167 24.6322 68.7585 22.9219 68.7585 20.1047C68.7585 17.2876 70.167 15.376 72.4811 15.376C73.0847 15.376 73.6884 15.4766 74.1915 15.7785C74.6945 16.0803 75.097 16.5834 75.2982 17.0864V15.4766H78.3165V24.6322C78.3165 26.8457 76.4049 28.1536 73.4872 28.1536C70.6701 28.1536 68.9597 27.0469 68.8591 25.3365ZM75.097 20.1047C75.097 18.5956 74.3927 17.6901 73.3866 17.6901C72.3805 17.6901 71.6762 18.5956 71.6762 20.1047C71.6762 21.6139 72.2799 22.4188 73.3866 22.4188C74.4933 22.4188 75.097 21.6139 75.097 20.1047ZM79.222 20.1047C79.222 17.0864 81.033 15.2754 83.9507 15.2754C86.8685 15.2754 88.6795 17.0864 88.6795 20.1047C88.6795 23.1231 86.8685 24.9341 83.9507 24.9341C81.033 24.9341 79.222 23.2237 79.222 20.1047ZM85.6611 20.1047C85.6611 18.495 84.9569 17.4889 83.9507 17.4889C82.9446 17.4889 82.341 18.495 82.341 20.1047C82.341 21.7145 82.9446 22.7206 84.0514 22.7206C85.0575 22.7206 85.6611 21.8151 85.6611 20.1047ZM89.7862 13.2632C89.7862 12.9614 89.8868 12.6595 89.9874 12.3577C90.1886 12.0559 90.3899 11.8546 90.6917 11.754C90.9935 11.6534 91.2954 11.5528 91.5972 11.6534C91.899 11.754 92.2009 11.8546 92.4021 12.0559C92.6033 12.2571 92.8045 12.5589 92.8045 12.8607C92.9051 13.1626 92.8045 13.4644 92.7039 13.7662C92.6033 14.0681 92.4021 14.2693 92.2009 14.4705C91.9996 14.6717 91.6978 14.7724 91.396 14.7724C91.1947 14.7724 90.9935 14.7724 90.7923 14.6717C90.5911 14.5711 90.3899 14.4705 90.2893 14.3699C90.1886 14.2693 89.9874 14.0681 89.9874 13.8669C89.8868 13.6656 89.7862 13.4644 89.7862 13.2632ZM89.7862 15.4766H92.8045V24.7329H89.7862V15.4766ZM103.771 20.1047C103.771 23.1231 102.463 24.8335 100.149 24.8335C99.5455 24.8335 98.9418 24.7329 98.4387 24.431C97.9357 24.1292 97.5333 23.6261 97.332 23.1231H97.2314V27.6506H94.2131V15.4766H97.2314V17.0864H97.332C97.5333 16.5834 97.9357 16.0803 98.4387 15.7785C98.9418 15.4766 99.5455 15.2754 100.149 15.376C102.463 15.376 103.872 17.0864 103.771 20.1047ZM100.753 20.1047C100.753 18.5956 100.049 17.6901 99.0424 17.6901C98.0363 17.6901 97.332 18.5956 97.332 20.1047C97.332 21.6139 98.0363 22.5194 99.0424 22.5194C100.049 22.5194 100.753 21.6139 100.753 20.1047ZM109.003 15.2754C111.518 15.2754 113.027 16.4827 113.128 18.3944H110.411C110.411 17.7907 109.908 17.2876 109.003 17.2876C108.198 17.2876 107.796 17.5895 107.796 18.0925C107.796 18.5956 108.097 18.6962 108.802 18.8974L110.713 19.2999C112.524 19.7023 113.329 20.4066 113.329 21.8151C113.329 23.7267 111.619 24.9341 109.003 24.9341C106.488 24.9341 104.777 23.7267 104.677 21.8151H107.594C107.695 22.5194 108.198 22.9219 109.104 22.9219C110.009 22.9219 110.411 22.62 110.411 22.117C110.411 21.6139 110.11 21.5133 109.405 21.4127L107.695 21.0102C105.884 20.6078 104.978 19.7023 104.978 18.2937C104.878 16.4827 106.488 15.2754 109.003 15.2754ZM123.39 24.7329H120.473V23.0225H120.372C120.171 23.6261 119.869 24.1292 119.366 24.431C118.863 24.7329 118.259 24.9341 117.655 24.9341C117.152 24.9341 116.75 24.9341 116.348 24.7329C115.945 24.5316 115.543 24.3304 115.241 24.0286C114.939 23.7267 114.637 23.3243 114.537 22.9219C114.335 22.5194 114.335 22.0164 114.335 21.6139V15.4766H117.354V20.7084C117.354 21.8151 117.957 22.4188 118.863 22.4188C119.064 22.4188 119.265 22.4188 119.466 22.3182C119.668 22.2176 119.869 22.117 119.97 21.9157C120.07 21.7145 120.271 21.5133 120.271 21.3121C120.372 21.1109 120.372 20.9096 120.372 20.7084V15.4766H123.39V24.7329ZM124.799 15.4766H127.717V17.2876H127.817C128.018 16.684 128.32 16.1809 128.823 15.8791C129.326 15.4766 129.829 15.376 130.433 15.376C131.037 15.376 131.64 15.4766 132.143 15.8791C132.627 16.2483 132.951 16.7881 133.049 17.3882H133.15C133.351 16.7846 133.753 16.2815 134.256 15.8791C134.759 15.4766 135.363 15.376 136.067 15.376C136.47 15.376 136.872 15.4766 137.275 15.5772C137.677 15.7785 137.979 15.9797 138.281 16.2815C138.583 16.5834 138.784 16.8852 138.884 17.2876C138.985 17.6901 139.086 18.0925 139.086 18.495V24.7329H136.067V19.2999C136.067 18.2937 135.665 17.7907 134.759 17.7907C134.558 17.7907 134.357 17.7907 134.256 17.8913C134.105 17.9666 133.969 18.0689 133.854 18.1931C133.753 18.2937 133.653 18.495 133.552 18.6962C133.451 18.8974 133.451 19.0986 133.552 19.2999V24.7329H130.735V19.1992C130.735 18.2937 130.232 17.7907 129.427 17.7907C129.226 17.7907 129.025 17.7907 128.924 17.8913C128.723 17.9919 128.622 18.0925 128.421 18.1931C128.32 18.2937 128.22 18.495 128.119 18.6962C128.018 18.8974 128.018 19.0986 128.018 19.2999V24.7329H125L124.799 15.4766ZM45.6179 13.062C45.1149 11.8546 44.4106 10.8485 43.6057 9.84241C42.3984 8.33325 40.8892 7.12592 39.1788 6.32103C37.4684 5.41553 35.5568 5.01308 33.6452 4.91247C31.7336 4.81186 29.822 5.11369 28.011 5.91858C26.2 6.62286 24.5902 7.72958 23.2822 9.13814C21.9743 10.5467 20.8676 12.1565 20.2639 13.9675C19.6602 15.7785 19.3584 17.6901 19.459 19.6017C19.5596 21.5133 20.1633 23.4249 21.0688 25.0347C21.9743 26.7451 23.2822 28.1536 24.7914 29.361C25.7594 30.1351 26.8468 30.7467 28.011 31.172C29.6207 31.8762 31.3311 32.1781 33.1421 32.1781C36.7641 32.1781 40.1849 30.7695 42.8008 28.1536C45.3161 25.6384 46.8252 22.117 46.8252 18.495C46.7347 16.6285 46.3264 14.7911 45.6179 13.062ZM33.1421 7.62897C34.7519 7.62897 36.2611 7.9308 37.6696 8.63508C37.3678 8.73569 36.9654 8.93692 36.5629 8.93692C35.3556 9.13814 34.1482 9.64119 33.3434 10.5467C32.4379 11.4522 31.9348 12.5589 31.7336 13.7662C31.6415 14.4538 31.3229 15.0911 30.8281 15.5772C30.325 16.0803 29.7214 16.3821 29.0171 16.3821C27.8097 16.5834 26.6024 17.0864 25.7975 17.9919C24.892 18.8974 24.389 20.0041 24.1877 21.2115C24.0871 21.9157 23.8859 22.5194 23.3829 22.9219C22.578 21.3121 22.2761 19.4005 22.3767 17.5895C22.4774 15.7785 23.081 13.9675 24.0871 12.4583C25.0932 10.9491 26.4012 9.64119 28.011 8.73569C29.5201 8.03142 31.2305 7.62897 33.1421 7.62897ZM24.7914 25.5377C24.892 25.4371 24.9926 25.3365 25.1939 25.2359C26.0994 24.3304 26.703 23.2237 26.8036 22.0164C26.8957 21.3288 27.2143 20.6915 27.7091 20.2054C28.1953 19.7105 28.8326 19.3919 29.5201 19.2999C30.7275 19.0986 31.9348 18.5956 32.7397 17.6901C33.6452 16.7846 34.1482 15.6779 34.3495 14.4705C34.3495 13.7662 34.7519 13.062 35.255 12.5589C35.758 12.0559 36.3617 11.754 37.066 11.754C38.1727 11.5528 39.2794 11.0497 40.0843 10.3455C41.0178 11.1661 41.8307 12.1145 42.499 13.1626C42.499 13.2632 42.3984 13.2632 42.3984 13.2632C41.9122 13.758 41.2749 14.0767 40.5874 14.1687C39.38 14.3699 38.1727 14.873 37.3678 15.7785C36.4623 16.684 35.9592 17.7907 35.758 18.998C35.666 19.6856 35.3474 20.3229 34.8525 20.809C34.3664 21.3039 33.7291 21.6225 33.0415 21.7145C31.8342 21.9157 30.6269 22.4188 29.822 23.3243C28.9165 24.2298 28.3128 25.3365 28.2122 26.5439C28.1116 27.0469 28.011 27.55 27.7091 27.9524C26.5018 27.2481 25.5963 26.4432 24.7914 25.5377ZM33.1421 29.4616C32.136 29.4616 31.1299 29.361 30.1238 29.0591C30.4256 28.4555 30.7275 27.7512 30.7275 27.0469C30.8195 26.3593 31.1381 25.7221 31.633 25.2359C32.1191 24.7411 32.7564 24.4225 33.444 24.3304C34.6513 24.1292 35.8586 23.6261 36.6635 22.7206C37.569 21.8151 38.0721 20.7084 38.2733 19.5011C38.3653 18.8135 38.684 18.1763 39.1788 17.6901C39.665 17.1953 40.3022 16.8766 40.9898 16.7846C41.8953 16.684 42.8008 16.2815 43.6057 15.7785C44.0081 17.3882 44.1087 19.0986 43.7063 20.7084C43.4045 22.3182 42.7002 23.8274 41.6941 25.2359C40.688 26.5439 39.38 27.6506 37.8709 28.3549C36.3617 28.9585 34.7519 29.361 33.1421 29.4616Z" fill="#B4B7C9"/>
</svg>
