<svg width="156" height="37" viewBox="0 0 156 37" fill="none" xmlns="http://www.w3.org/2000/svg">
<path d="M43.6057 13.6656C44.0081 13.6656 44.1088 13.7663 44.1088 14.1687V22.117H48.2338C48.5356 22.117 48.7369 22.2176 48.7369 22.62V23.3243C48.7369 23.7268 48.6363 23.8274 48.2338 23.8274H42.8008C42.499 23.8274 42.2978 23.7268 42.2978 23.3243V14.1687C42.2978 13.8669 42.3984 13.6656 42.8008 13.6656H43.6057ZM52.2583 17.187C52.2583 14.873 53.7674 13.4644 56.2827 13.4644C58.798 13.4644 60.3071 14.873 60.3071 17.187V20.306C60.3071 22.62 58.798 24.0286 56.2827 24.0286C53.7674 24.0286 52.2583 22.62 52.2583 20.306V17.187ZM58.5968 17.187C58.5968 15.8791 57.7919 15.1748 56.2827 15.1748C54.7735 15.1748 53.9686 15.8791 53.9686 17.187V20.306C53.9686 21.6139 54.7735 22.3182 56.2827 22.3182C57.7919 22.3182 58.5968 21.6139 58.5968 20.306V17.187ZM72.2799 18.2938C72.6823 18.2938 72.7829 18.3944 72.7829 18.7968V20.7084C72.7791 21.1612 72.6761 21.6077 72.4811 22.0164C72.2712 22.4244 71.9997 22.7977 71.6762 23.1231C70.8713 23.8274 69.7646 24.1292 68.6579 24.0286C66.042 24.0286 64.6334 22.62 64.6334 20.306V17.187C64.6334 14.873 66.1426 13.4644 68.6579 13.4644C70.6701 13.4644 71.978 14.2693 72.4811 15.8791V16.0803V16.2815C72.4811 16.3821 72.3805 16.3821 72.3805 16.4828C72.3805 16.3821 72.2799 16.4828 72.2799 16.4828L71.475 16.7846C71.1731 16.8852 70.9719 16.8852 70.8713 16.4828C70.6701 16.0803 70.3683 15.6779 69.9658 15.4766C69.5571 15.2817 69.1107 15.1787 68.6579 15.1748C67.1487 15.1748 66.3438 15.8791 66.3438 17.187V20.4066C66.3438 21.7145 67.1487 22.4188 68.6579 22.4188C70.167 22.4188 71.0725 21.7145 71.0725 20.809V20.1048H68.8591C68.4566 20.1048 68.356 20.0041 68.356 19.6017V18.8974C68.356 18.495 68.4566 18.3944 68.8591 18.3944H72.2799V18.2938ZM76.908 17.187C76.908 14.873 78.4171 13.4644 80.9324 13.4644C83.4477 13.4644 84.9569 14.873 84.9569 17.187V20.306C84.9569 22.62 83.4477 24.0286 80.9324 24.0286C78.4171 24.0286 76.908 22.62 76.908 20.306V17.187ZM83.2465 17.187C83.2465 15.8791 82.4416 15.1748 80.9324 15.1748C79.5239 15.1748 78.6184 15.8791 78.6184 17.187V20.306C78.6184 21.6139 79.4233 22.3182 80.9324 22.3182C82.4416 22.3182 83.2465 21.6139 83.2465 20.306V17.187ZM89.6856 13.9675C89.6856 13.7663 89.7862 13.6656 89.9874 13.6656H90.4905C90.6917 13.6656 90.7923 13.7663 90.7923 13.9675V23.5255C90.7923 23.7268 90.7923 23.8274 90.4905 23.8274H89.9874C89.7862 23.8274 89.6856 23.7268 89.6856 23.5255V13.9675ZM99.9479 13.6656C100.753 13.6656 101.558 13.9675 102.161 14.5711C102.765 15.1748 103.067 15.9797 103.067 16.7846C103.067 17.5895 102.765 18.3944 102.161 18.998C101.558 19.6017 100.753 19.9035 99.9479 19.9035H96.9296V23.5255C96.9296 23.7268 96.829 23.8274 96.6278 23.8274H96.1247C95.9235 23.8274 95.8229 23.7268 95.8229 23.5255V13.9675C95.8229 13.7663 95.9235 13.6656 96.1247 13.6656H99.9479ZM99.8473 18.998C100.149 18.998 100.451 18.8974 100.652 18.7968C100.954 18.6962 101.155 18.495 101.356 18.2938C101.558 18.0925 101.759 17.8913 101.86 17.5895C101.96 17.2876 102.061 17.0864 102.061 16.7846C102.061 16.4828 101.96 16.1809 101.86 15.9797C101.759 15.6779 101.558 15.4766 101.356 15.2754C101.155 15.0742 100.954 14.873 100.652 14.7724C100.35 14.6718 100.149 14.5711 99.8473 14.5711H96.829V18.998H99.8473ZM110.915 13.565C111.719 13.4644 112.524 13.6656 113.128 14.0681C113.805 14.4568 114.336 15.0579 114.637 15.7785C114.738 15.9797 114.637 16.0803 114.436 16.1809L114.033 16.3821C113.832 16.4828 113.832 16.4828 113.631 16.2815C113.43 15.7785 113.027 15.2754 112.524 14.9736C112.021 14.6718 111.418 14.5711 110.915 14.5711C109.204 14.5711 108.299 15.2754 108.299 16.4828C108.291 16.8416 108.396 17.1938 108.6 17.4889C108.802 17.7907 109.204 17.9919 109.506 17.9919C110.009 18.1931 110.613 18.2938 111.216 18.2938C111.921 18.2938 112.625 18.495 113.229 18.6962C113.708 18.8794 114.126 19.1931 114.436 19.6017C114.738 20.0041 114.838 20.5072 114.838 21.1109C114.838 23.0225 113.43 24.1292 110.915 24.1292C110.11 24.2298 109.305 24.0286 108.6 23.6261C107.896 23.2237 107.393 22.5194 107.091 21.7145V21.6139V21.5133C107.091 21.5133 107.091 21.4127 107.192 21.4127C107.192 21.4127 107.293 21.4127 107.293 21.3121L107.695 21.1109H107.796H107.896C107.896 21.1109 107.997 21.1109 107.997 21.2115C107.997 21.2115 107.997 21.3121 108.097 21.3121C108.299 21.9158 108.701 22.3182 109.204 22.7206C109.707 23.0225 110.311 23.2237 110.915 23.1231C112.826 23.1231 113.732 22.4188 113.732 21.1109C113.74 20.752 113.634 20.3999 113.43 20.1048C113.229 19.8029 112.927 19.6017 112.524 19.5011C112.021 19.2999 111.418 19.2999 110.915 19.1993L109.808 19.0986L108.802 18.7968C108.5 18.6962 108.198 18.495 107.896 18.2938C107.594 18.0925 107.393 17.7907 107.293 17.3883C107.192 17.0864 107.091 16.684 107.091 16.3821C107.293 14.6718 108.6 13.565 110.915 13.565ZM120.271 20.4066C120.271 21.1109 120.674 21.8151 121.177 22.3182C121.68 22.8213 122.384 23.1231 123.088 23.1231C123.793 23.1231 124.497 22.8213 125 22.3182C125.503 21.8151 125.805 21.2115 125.906 20.4066V14.0681C125.906 13.8669 126.006 13.7663 126.207 13.7663H126.71C126.912 13.7663 127.012 13.8669 127.012 14.0681V20.4066C127.012 22.7206 125.704 24.0286 123.189 24.0286C120.674 24.0286 119.366 22.62 119.366 20.4066V14.0681C119.366 13.8669 119.466 13.7663 119.668 13.7663H120.171C120.372 13.7663 120.473 13.8669 120.473 14.0681V20.4066H120.271ZM140.796 13.7663C140.997 13.7663 141.098 13.8669 141.098 14.0681V23.5255C141.098 23.7268 140.997 23.8274 140.796 23.8274H140.394C140.192 23.8274 140.092 23.7268 140.092 23.5255V17.6901C140.092 16.8852 140.192 15.9797 140.293 15.1748H140.192C139.891 15.9797 139.488 16.684 139.086 17.3883L136.872 21.2115C136.872 21.3121 136.772 21.3121 136.772 21.4127C136.671 21.4127 136.671 21.5133 136.57 21.5133H136.269C136.168 21.5133 136.168 21.5133 136.067 21.4127C135.967 21.4127 135.967 21.3121 135.967 21.2115L133.753 17.3883C133.351 16.684 133.049 15.9797 132.747 15.1748H132.647L132.848 17.6901V23.5255C132.848 23.7268 132.747 23.8274 132.546 23.8274H132.143C131.942 23.8274 131.842 23.7268 131.842 23.5255V13.9675C131.842 13.7663 131.942 13.6656 132.143 13.6656H132.546C132.647 13.6656 132.747 13.6656 132.747 13.7663C132.848 13.7663 132.848 13.8669 132.948 13.9675L136.47 20.2054L139.991 13.9675C140.092 13.7663 140.192 13.7663 140.394 13.7663H140.796ZM25.6969 22.3182V29.5622C25.6969 29.864 25.5963 30.0653 25.3951 30.2665C25.2048 30.4493 24.9544 30.5566 24.6908 30.5683C24.389 30.5683 24.1878 30.4677 23.9865 30.2665C23.8037 30.0762 23.6965 29.8258 23.6847 29.5622V22.3182C23.9798 22.5225 24.332 22.6281 24.6908 22.62C24.9926 22.7206 25.3951 22.5194 25.6969 22.3182ZM34.6513 20.2054C34.3495 20.2054 34.1483 20.306 33.947 20.5072C33.7458 20.7084 33.6452 20.9096 33.6452 21.2115V22.5194C33.6452 22.8213 33.7458 23.0225 33.947 23.2237C34.1374 23.4065 34.3877 23.5138 34.6513 23.5255C34.9531 23.5255 35.1544 23.4249 35.3556 23.2237C35.5384 23.0334 35.6457 22.783 35.6574 22.5194V21.3121C35.6574 21.2115 35.6574 21.0103 35.5568 20.9096C35.4562 20.809 35.4562 20.6078 35.3556 20.5072C35.255 20.4066 35.1544 20.306 34.9531 20.306C34.9531 20.2054 34.8525 20.2054 34.6513 20.2054ZM21.3706 25.0347C21.0118 25.0428 20.6596 24.9371 20.3645 24.7329V31.9769C20.3645 32.2787 20.4651 32.4799 20.6664 32.6811C20.8567 32.8639 21.107 32.9712 21.3706 32.983C21.6725 32.983 21.8737 32.8824 22.0749 32.6811C22.2577 32.4908 22.365 32.2405 22.3768 31.9769V24.7329C22.0749 25.0347 21.7731 25.1353 21.3706 25.0347ZM31.4318 17.9919C31.3311 17.9919 31.1299 17.9919 31.0293 18.0925C30.9287 18.0925 30.8281 18.1931 30.7275 18.2938C30.6269 18.3944 30.5263 18.495 30.5263 18.5956C30.4256 18.6962 30.4256 18.8974 30.4256 18.998V24.6323C30.4256 24.9341 30.5263 25.1353 30.7275 25.3365C30.9178 25.5193 31.1681 25.6266 31.4318 25.6384C31.7336 25.6384 31.9348 25.5378 32.136 25.3365C32.3188 25.1462 32.4261 24.8959 32.4379 24.6323V19.0986C32.4379 18.998 32.4379 18.7968 32.3373 18.6962C32.2366 18.5956 32.2366 18.3944 32.136 18.2938C32.0354 18.1931 31.9348 18.0925 31.7336 18.0925C31.633 18.0925 31.5324 17.9919 31.4318 17.9919ZM28.011 20.2054C27.6522 20.2135 27.3 20.1078 27.0049 19.9035V27.2481C27.0049 27.55 27.1055 27.7512 27.3067 27.9524C27.497 28.1352 27.7474 28.2425 28.011 28.2543C28.2746 28.2425 28.5249 28.1352 28.7153 27.9524C28.898 27.7621 29.0053 27.5118 29.0171 27.2481V19.9035C28.8159 20.1048 28.4134 20.2054 28.011 20.2054ZM19.0566 25.739V5.31492C19.0448 5.0513 18.9375 4.80097 18.7548 4.61065C18.5535 4.51003 18.3523 4.40942 18.1511 4.40942H17.9499C17.6862 4.42118 17.4359 4.52847 17.2456 4.71126C17.0444 4.91248 16.9438 5.1137 16.9438 5.31492V25.739C16.9555 26.0026 17.0628 26.2529 17.2456 26.4433C17.4468 26.6445 17.648 26.7451 17.9499 26.7451H18.1511C18.4147 26.7333 18.665 26.626 18.8554 26.4433C18.956 26.242 19.0566 26.0408 19.0566 25.739ZM21.4713 24.3304H21.27C21.0064 24.3187 20.7561 24.2114 20.5658 24.0286C20.3645 23.8274 20.2639 23.6261 20.2639 23.3243V7.72959C20.2757 7.46597 20.383 7.21563 20.5658 7.02531C20.767 6.82409 20.9682 6.72348 21.27 6.72348H21.4713C21.7349 6.73524 21.9852 6.84252 22.1755 7.02531C22.3768 7.22653 22.4774 7.42776 22.4774 7.72959V23.3243C22.4656 23.5879 22.3583 23.8383 22.1755 24.0286C21.9852 24.2114 21.7349 24.3187 21.4713 24.3304ZM24.7914 21.9158H24.5902C24.3266 21.904 24.0762 21.7967 23.8859 21.6139C23.6847 21.4127 23.5841 21.2115 23.5841 20.9096V10.2449C23.5841 10.1443 23.5841 10.0436 23.6847 9.84242C23.6847 9.74181 23.7853 9.6412 23.8859 9.54059C23.9865 9.43998 24.0871 9.33937 24.1878 9.33937C24.2884 9.33937 24.389 9.23876 24.5902 9.23876H24.7914C25.055 9.25051 25.3054 9.3578 25.4957 9.54059C25.6969 9.74181 25.7975 9.94304 25.7975 10.2449V21.0103C25.7858 21.2739 25.6785 21.5242 25.4957 21.7145C25.2945 21.8151 24.9926 21.9158 24.7914 21.9158ZM28.1116 19.4005H27.9104C27.6467 19.3887 27.3964 19.2814 27.2061 19.0986C27.1055 18.998 27.0049 18.6962 27.0049 18.495V12.6595C27.0049 12.5589 27.0049 12.3577 27.1055 12.2571C27.1055 12.1565 27.2061 12.0559 27.3067 11.9553C27.4073 11.8546 27.5079 11.754 27.6085 11.754C27.7091 11.6534 27.8098 11.6534 28.011 11.6534H28.2122C28.4758 11.6652 28.7262 11.7725 28.9165 11.9553C29.1177 12.1565 29.2183 12.3577 29.2183 12.6595V18.495C29.2183 18.5956 29.2183 18.6962 29.1177 18.8974C29.1177 18.998 29.0171 19.0986 28.9165 19.1993C28.8159 19.2999 28.7153 19.4005 28.6146 19.4005H28.1116ZM31.4318 17.2876H31.2305C30.9669 17.2759 30.7166 17.1686 30.5263 16.9858C30.325 16.7846 30.2244 16.5834 30.2244 16.2815V14.7724C30.2362 14.5087 30.3435 14.2584 30.5263 14.0681C30.7275 13.8669 30.9287 13.7663 31.2305 13.7663H31.4318C31.6954 13.778 31.9457 13.8853 32.136 14.0681C32.3373 14.2693 32.4379 14.4705 32.4379 14.7724V16.2815C32.4261 16.5452 32.3188 16.7955 32.136 16.9858C31.9348 17.187 31.7336 17.2876 31.4318 17.2876Z" fill="#B4B7C9"/>
</svg>
