<svg width="49" height="49" viewBox="0 0 49 49" fill="none" xmlns="http://www.w3.org/2000/svg">
<path fill-rule="evenodd" clip-rule="evenodd" d="M18.5195 9.32154L8.37553 27.8825C7.74153 29.1185 8.23153 30.6355 9.46653 31.2685C9.65953 31.3645 9.86753 31.4455 10.0765 31.4855C13.6075 32.3195 20.3485 30.2495 25.8445 32.3195C31.3405 34.3895 33.8855 38.6265 37.2155 40.8735C37.9593 41.4092 38.851 41.7009 39.7675 41.7085H39.7835C39.9765 41.7085 40.1525 41.7005 40.3295 41.6765C41.1795 41.5719 41.9802 41.2204 42.6325 40.6655C43.0015 40.3445 43.3145 39.9595 43.5635 39.5335C43.9658 38.8781 44.1854 38.1269 44.1994 37.3579C44.2135 36.589 44.0216 35.8303 43.6435 35.1605L29.5205 9.33754C28.7218 7.88031 27.3773 6.79973 25.7824 6.33322C24.1875 5.8667 22.4726 6.05241 21.0145 6.84954C19.9571 7.40951 19.0897 8.26953 18.5195 9.32154Z" fill="url(#paint0_linear_104_217)"/>
<path fill-rule="evenodd" clip-rule="evenodd" d="M11.6255 35.0967C10.4615 33.1867 7.97453 32.5767 6.05653 33.7407C4.14653 34.9037 3.53653 37.3917 4.70053 39.3097C4.97611 39.7649 5.33865 40.1614 5.76746 40.4765C6.19627 40.7916 6.68295 41.0192 7.19971 41.1462C7.71647 41.2732 8.25318 41.2972 8.77922 41.2169C9.30525 41.1365 9.8103 40.9532 10.2655 40.6777C10.7208 40.4021 11.1172 40.0395 11.4324 39.6107C11.7475 39.1819 11.975 38.6952 12.1021 38.1785C12.2291 37.6617 12.2531 37.125 12.1727 36.599C12.0923 36.0729 11.9091 35.5679 11.6335 35.1127L11.6255 35.0967Z" fill="url(#paint1_linear_104_217)"/>
<path fill-rule="evenodd" clip-rule="evenodd" d="M12.2115 37.2473C12.1795 39.4863 10.3415 41.2753 8.10254 41.2433C5.85554 41.2113 4.06654 39.3733 4.09854 37.1343C4.11454 36.0833 4.53154 35.0883 5.27054 34.3413C4.21954 36.2193 4.84554 37.7433 5.59954 38.3133C6.76354 39.2043 9.64354 39.0203 12.2115 37.2473Z" fill="url(#paint2_linear_104_217)"/>
<path fill-rule="evenodd" clip-rule="evenodd" d="M11.2565 28.1396C10.8384 28.2491 10.3939 28.1891 10.0197 27.9726C9.64556 27.7561 9.372 27.4007 9.25853 26.9836C9.21853 26.8476 9.20253 26.7026 9.20253 26.5666C9.20253 26.3576 9.24253 26.1576 9.31453 25.9646L8.26353 27.8826C7.62953 29.1186 8.11953 30.6346 9.36253 31.2686C9.55611 31.3658 9.76101 31.4387 9.97253 31.4856C13.5035 32.3206 20.2435 30.2496 25.7405 32.3206C33.4035 35.2016 35.4185 42.1986 40.2415 41.6856C42.6645 41.3726 44.3745 39.1576 44.0615 36.7426C43.9895 36.1886 43.8125 35.6516 43.5475 35.1616L37.0955 23.4056C34.3505 18.3826 27.1445 19.4656 22.7235 21.4236C18.3025 23.3816 13.3345 27.5136 11.2565 28.1396Z" fill="url(#paint3_linear_104_217)"/>
<path fill-rule="evenodd" clip-rule="evenodd" d="M8.85753 26.7996L8.26353 27.8826C7.62953 29.1186 8.11953 30.6356 9.35453 31.2686C9.54753 31.3646 9.75553 31.4456 9.96453 31.4856C13.4955 32.3206 20.2365 30.2496 25.7325 32.3206C30.8365 34.2386 33.3965 38.0336 36.3975 40.3696C36.8305 40.7706 37.4005 40.9876 37.9945 40.9876C38.298 40.9878 38.5986 40.9281 38.8791 40.812C39.1595 40.6959 39.4143 40.5257 39.6289 40.311C39.8436 40.0964 40.0138 39.8416 40.1299 39.5612C40.246 39.2807 40.3057 38.9801 40.3055 38.6766C40.3055 37.8256 39.6875 36.9276 39.2785 36.1886C30.6595 20.6206 21.5115 26.2056 11.1285 29.6646C10.9605 29.7206 10.7755 29.7446 10.5985 29.7366C9.49953 29.7286 8.61653 28.8376 8.61653 27.7466C8.62311 27.4166 8.70557 27.0926 8.85753 26.7996Z" fill="url(#paint4_linear_104_217)"/>
<defs>
<linearGradient id="paint0_linear_104_217" x1="564.575" y1="633.552" x2="1210.31" y2="907.668" gradientUnits="userSpaceOnUse">
<stop stop-color="#5F6DED"/>
<stop offset="1" stop-color="#49B9D9"/>
</linearGradient>
<linearGradient id="paint1_linear_104_217" x1="50.0904" y1="336.447" x2="96.17" y2="327.596" gradientUnits="userSpaceOnUse">
<stop stop-color="#5F6EED"/>
<stop offset="1" stop-color="#45C8D4"/>
</linearGradient>
<linearGradient id="paint2_linear_104_217" x1="49.5089" y1="295.343" x2="90.6015" y2="283.811" gradientUnits="userSpaceOnUse">
<stop stop-color="#578BE5"/>
<stop offset="1" stop-color="#43CED3"/>
</linearGradient>
<linearGradient id="paint3_linear_104_217" x1="451.479" y1="547.583" x2="1419.2" y2="990.965" gradientUnits="userSpaceOnUse">
<stop stop-color="#5788E6"/>
<stop offset="1" stop-color="#3FDDCF"/>
</linearGradient>
<linearGradient id="paint4_linear_104_217" x1="1194.33" y1="548.183" x2="556.447" y2="150.435" gradientUnits="userSpaceOnUse">
<stop stop-color="#4452CF"/>
<stop offset="1" stop-color="#0BD3B9"/>
</linearGradient>
</defs>
</svg>
