<svg width="49" height="49" viewBox="0 0 49 49" fill="none" xmlns="http://www.w3.org/2000/svg">
<path fill-rule="evenodd" clip-rule="evenodd" d="M16.5505 21.0878L24.3185 13.3198L32.0935 21.0948L36.6135 16.5748L24.3185 4.27979L12.0305 16.5678L16.5505 21.0878ZM4.31653 24.2808L8.83553 19.7618L13.3545 24.2808L8.83553 28.7998L4.31653 24.2808ZM24.3185 35.2458L16.5505 27.4778L12.0245 31.9908L12.0315 31.9978L24.3195 44.2858L36.6145 31.9908L32.0945 27.4708L24.3185 35.2458ZM35.2795 24.2838L39.7985 19.7648L44.3165 24.2848L39.7975 28.8038L35.2785 24.2848L35.2795 24.2838ZM24.3185 19.6958L28.9045 24.2818L24.3185 28.8748L19.7325 24.2888V24.2758L20.5375 23.4708L20.9305 23.0848L24.3185 19.6958Z" fill="#F3BA2F"/>
</svg>
