<svg width="49" height="49" viewBox="0 0 49 49" fill="none" xmlns="http://www.w3.org/2000/svg">
<path d="M13.8965 8.32371L17.2015 9.12471L20.5065 9.92571C20.8075 10.0257 20.9075 9.92571 21.0075 9.62571L22.2095 4.61771C22.3095 4.31771 22.4095 4.21671 22.7105 4.31771C23.7125 4.61771 24.6135 4.81871 25.6145 5.01871C25.9145 5.11871 25.9145 5.21871 25.8145 5.41971L24.6125 10.3277C24.6125 10.4277 24.6125 10.5277 24.5125 10.7287L27.0165 11.3297C27.1165 11.3297 27.2165 11.1297 27.3165 11.0287L28.3185 7.22271L28.6185 6.02071C28.6185 5.82071 28.7185 5.72071 28.9185 5.82071L32.0235 6.62171C32.1235 6.62171 32.1235 6.72171 32.2235 6.72171L31.3225 10.4277C31.2225 10.9287 31.1225 11.4297 30.9215 11.9297C30.8215 12.2297 30.9215 12.3307 31.2225 12.4307L34.5275 13.9327C35.5295 14.5337 36.4305 15.3347 37.1315 16.3367C38.0325 17.8387 38.1335 19.4417 37.7325 21.0437C37.4325 22.1457 37.0315 23.1467 36.2305 23.9477C35.6295 24.5487 34.8285 24.9497 34.0275 25.2497C33.9275 25.2497 33.8275 25.3497 33.6265 25.3497C34.0275 25.6497 34.4275 25.8507 34.8285 26.1507C36.0305 27.0517 36.8315 28.1537 37.2325 29.5557C37.4325 30.6577 37.3325 31.8597 37.0325 32.9607C36.6315 34.3627 36.1315 35.5647 35.2295 36.6667C34.1275 37.9687 32.7255 38.6697 31.1235 38.8697C29.0205 39.1697 27.0175 38.9697 25.0135 38.6697C24.7135 38.5697 24.5125 38.6697 24.4125 38.9697L23.2105 43.8777C23.1105 44.2787 23.1105 44.3787 22.6095 44.1777L19.8055 43.4767C19.5055 43.3767 19.5055 43.2767 19.6055 43.0757L20.9075 38.0677C20.9075 37.8677 21.0075 37.7677 20.8075 37.6667L18.3035 37.0657L17.6025 39.7697L16.9015 42.4737C16.8015 42.6737 16.8015 42.7737 16.5005 42.6737C15.4985 42.3737 14.4975 42.1727 13.4955 41.9727C13.1955 41.8727 13.1955 41.7727 13.2955 41.5717L14.5975 36.5637C14.5975 36.4637 14.6975 36.3637 14.6975 36.1627L7.68652 34.3647L8.18752 33.2627L9.28952 30.6587C9.38952 30.3587 9.48952 30.3587 9.79052 30.3587C10.4915 30.5587 11.2925 30.7597 11.9935 30.8597C12.7945 31.0597 13.3955 30.6597 13.4955 29.9587L17.3015 14.5347C17.5015 13.7337 17.0015 12.8317 16.0995 12.5317C15.1975 12.2317 14.2965 12.0307 13.4955 11.8307C13.2955 11.8307 13.1955 11.7307 13.2955 11.5297L14.1965 8.12471C13.7955 8.42471 13.7955 8.42471 13.8965 8.32471V8.32371ZM19.0045 33.0627C19.1045 33.0627 19.2045 33.1627 19.2045 33.1627C20.8075 33.5637 22.5095 34.0637 24.2125 34.1647C25.4145 34.2647 26.5165 34.2647 27.6175 33.8647C29.5205 33.2637 30.3215 30.7597 29.2205 29.1577C28.7195 28.3567 27.9185 27.8557 27.1175 27.3547C25.3145 26.3527 23.2115 25.9527 21.2085 25.5517C20.9085 25.4517 20.9085 25.5517 20.8075 25.8517L20.1065 28.7557L19.0045 33.0627ZM27.4175 22.8467C27.6175 22.8467 28.1185 22.7467 28.5195 22.6467C30.4225 22.2457 31.4245 20.0427 30.4225 18.3397C29.9215 17.4387 29.0205 16.8377 28.1185 16.4367C26.7165 15.8357 25.3145 15.5357 23.8115 15.1347C23.5105 15.0347 23.4105 15.1347 23.3105 15.4347L21.7085 21.6447C21.6085 21.8447 21.7085 21.9447 21.9085 22.0457L23.0105 22.3457C24.5125 22.5457 25.8145 22.8467 27.4175 22.8467Z" fill="#F5B300"/>
</svg>
