<svg width="49" height="49" viewBox="0 0 49 49" fill="none" xmlns="http://www.w3.org/2000/svg">
<path d="M42.2595 18.413C45.5035 21.657 45.5035 26.903 42.2595 30.113L30.5595 41.847C27.3155 45.091 22.0695 45.091 18.8595 41.847L7.12554 30.147C3.88154 26.903 3.88154 21.657 7.12554 18.447L18.8255 6.71296C19.5955 5.94164 20.51 5.32971 21.5168 4.9122C22.5235 4.49469 23.6027 4.27979 24.6925 4.27979C25.7824 4.27979 26.8616 4.49469 27.8683 4.9122C28.875 5.32971 29.7896 5.94164 30.5595 6.71296L42.2595 18.413ZM33.4935 27.214C35.1155 25.592 35.1155 22.969 33.4935 21.347L27.6265 15.48C26.0045 13.858 23.3815 13.858 21.7595 15.48L15.8925 21.347C14.2705 22.969 14.2705 25.592 15.8925 27.214L21.7595 33.081C23.3815 34.703 26.0045 34.703 27.6265 33.081L33.4935 27.214Z" fill="#004BEF"/>
</svg>
