<svg width="49" height="49" viewBox="0 0 49 49" fill="none" xmlns="http://www.w3.org/2000/svg">
<path d="M11.4965 20.4628C11.8915 21.3078 12.8705 22.9778 12.8705 22.9778L24.1805 4.27979L13.1415 11.9888C12.484 12.4276 11.9445 13.0213 11.5705 13.7178C11.0678 14.7689 10.8007 15.9171 10.7879 17.0821C10.7751 18.2472 11.0169 19.4009 11.4965 20.4628Z" fill="url(#paint0_linear_104_197)"/>
<path d="M7.01453 26.6196C7.13953 28.4086 7.64453 30.1496 8.49653 31.7266C9.34853 33.3036 10.5285 34.6816 11.9555 35.7656L24.1655 44.2796C24.1655 44.2796 16.5265 33.2706 10.0825 22.3156C9.4303 21.1581 8.99196 19.8926 8.78853 18.5796C8.69832 17.985 8.69832 17.3802 8.78853 16.7856L8.29453 17.7346C7.64153 19.0666 7.19653 20.4916 6.97553 21.9596C6.84842 23.511 6.86081 25.0707 7.01453 26.6196Z" fill="#A0A8D4"/>
<path d="M38.1645 28.0965C37.7695 27.2515 36.7905 25.5815 36.7905 25.5815L25.4805 44.2795L36.5195 36.5765C37.1772 36.1375 37.7167 35.5433 38.0905 34.8465C38.594 33.7948 38.8616 32.6457 38.8743 31.4797C38.8871 30.3137 38.6449 29.1591 38.1645 28.0965Z" fill="url(#paint1_linear_104_197)"/>
<path d="M42.6465 21.9398C42.5215 20.1508 42.0165 18.4098 41.1645 16.8328C40.3125 15.2558 39.1325 13.8778 37.7055 12.7938L25.4945 4.27979C25.4945 4.27979 33.1285 15.2888 39.5775 26.2438C40.2285 27.4018 40.6645 28.6668 40.8675 29.9798C40.9577 30.5744 40.9577 31.1792 40.8675 31.7738L41.3615 30.8248C42.0145 29.4928 42.4595 28.0678 42.6805 26.5998C42.8093 25.0486 42.7986 23.4889 42.6465 21.9398Z" fill="#A0A8D4"/>
<path style="mix-blend-mode:color" d="M11.5705 13.7178C11.9445 13.0208 12.4835 12.4268 13.1415 11.9888L24.1805 4.27979L12.8695 22.9828L11.4955 20.4678C11.0152 19.4053 10.7729 18.2506 10.7857 17.0846C10.7985 15.9186 11.067 14.7695 11.5705 13.7178ZM7.01453 26.6198C7.13953 28.4088 7.64453 30.1498 8.49653 31.7268C9.34853 33.3038 10.5285 34.6818 11.9555 35.7658L24.1655 44.2798C24.1655 44.2798 16.5265 33.2708 10.0825 22.3158C9.43053 21.1588 8.99153 19.8928 8.78753 18.5798C8.69732 17.9852 8.69732 17.3804 8.78753 16.7858L8.29353 17.7348C7.64053 19.0668 7.19553 20.4918 6.97453 21.9598C6.84753 23.5108 6.86053 25.0708 7.01453 26.6198ZM38.1445 28.1018C37.7495 27.2568 36.7705 25.5868 36.7705 25.5868L25.4805 44.2798L36.5195 36.5768C37.1772 36.1377 37.7167 35.5436 38.0905 34.8468C38.594 33.7951 38.8616 32.646 38.8743 31.48C38.8871 30.314 38.6449 29.1593 38.1645 28.0968L38.1445 28.1018ZM42.6265 21.9448C42.5015 20.1568 41.9965 18.4148 41.1445 16.8378C40.2925 15.2608 39.1125 13.8838 37.6855 12.7988L25.4945 4.27979C25.4945 4.27979 33.1285 15.2888 39.5775 26.2438C40.2285 27.4018 40.6645 28.6668 40.8675 29.9798C40.9577 30.5744 40.9577 31.1792 40.8675 31.7738L41.3615 30.8248C42.0145 29.4928 42.4595 28.0678 42.6805 26.5998C42.8093 25.0486 42.7976 23.4889 42.6455 21.9398L42.6265 21.9448Z" fill="url(#paint2_linear_104_197)"/>
<defs>
<linearGradient id="paint0_linear_104_197" x1="24.6745" y1="4.73979" x2="10.1565" y2="20.4778" gradientUnits="userSpaceOnUse">
<stop offset="0.58" stop-color="#A0A8D4"/>
<stop offset="0.73" stop-color="#8791C7"/>
<stop offset="0.91" stop-color="#6470B4"/>
</linearGradient>
<linearGradient id="paint1_linear_104_197" x1="595.688" y1="1552.46" x2="1129.79" y2="1137.82" gradientUnits="userSpaceOnUse">
<stop offset="0.58" stop-color="#A0A8D4"/>
<stop offset="0.73" stop-color="#8791C7"/>
<stop offset="0.91" stop-color="#6470B4"/>
</linearGradient>
<linearGradient id="paint2_linear_104_197" x1="24.8275" y1="4.08179" x2="24.8275" y2="44.4038" gradientUnits="userSpaceOnUse">
<stop stop-color="#513EFF"/>
<stop offset="0.18" stop-color="#5157FF"/>
<stop offset="0.57" stop-color="#5298FF"/>
<stop offset="1" stop-color="#52E5FF"/>
</linearGradient>
</defs>
</svg>
