<svg width="17" height="17" viewBox="0 0 17 17" fill="none" xmlns="http://www.w3.org/2000/svg">
<path d="M5.26028 9.68213L4.26028 13.979C4.26028 14.0103 4.25768 14.0389 4.25247 14.0649C4.24726 14.091 4.24466 14.1144 4.24466 14.1353C4.24466 14.3228 4.30976 14.4816 4.43997 14.6118C4.57018 14.742 4.72903 14.8071 4.91653 14.8071C4.98945 14.8071 5.05716 14.7967 5.11966 14.7759C5.18216 14.755 5.23945 14.7238 5.29153 14.6821L8.91653 12.2759L12.5415 14.6821C12.5936 14.7238 12.6509 14.755 12.7134 14.7759C12.7759 14.7967 12.8436 14.8071 12.9165 14.8071C13.104 14.8071 13.2629 14.742 13.3931 14.6118C13.5233 14.4816 13.5884 14.3228 13.5884 14.1353C13.5884 14.104 13.5858 14.0728 13.5806 14.0415C13.5754 14.0103 13.5676 13.979 13.5572 13.9478L12.3384 9.68213L15.3697 6.96338C15.4322 6.90088 15.4842 6.82796 15.5259 6.74463C15.5676 6.6613 15.5884 6.56755 15.5884 6.46338C15.5884 6.29671 15.5285 6.14827 15.4087 6.01807C15.2889 5.88786 15.1457 5.81755 14.979 5.80713H14.9634L11.1665 5.49463L9.52591 1.854C9.47383 1.73942 9.3931 1.64567 9.28372 1.57275C9.17435 1.49984 9.05195 1.46338 8.91653 1.46338C8.78112 1.46338 8.65872 1.49984 8.54935 1.57275C8.43997 1.64567 8.35924 1.73942 8.30716 1.854L6.66653 5.49463L2.86966 5.80713C2.69258 5.81755 2.54414 5.88786 2.42435 6.01807C2.30456 6.14827 2.24466 6.29671 2.24466 6.46338C2.24466 6.55713 2.26289 6.64567 2.29935 6.729C2.33581 6.81234 2.38528 6.88525 2.44778 6.94775L5.26028 9.68213ZM7.16653 6.80713C7.29153 6.79671 7.40091 6.75505 7.49466 6.68213C7.58841 6.60921 7.66133 6.52067 7.71341 6.4165L8.91653 3.76025L10.1197 6.4165C10.1717 6.52067 10.2447 6.60921 10.3384 6.68213C10.4322 6.75505 10.5415 6.79671 10.6665 6.80713L13.3228 7.01025L11.1353 8.979C11.0415 9.06234 10.9764 9.1639 10.94 9.28369C10.9035 9.40348 10.9061 9.52588 10.9478 9.65088L11.7759 12.5728L9.29153 10.9165C9.23945 10.8748 9.18216 10.8462 9.11966 10.8306C9.05716 10.8149 8.98945 10.8071 8.91653 10.8071C8.84362 10.8071 8.77591 10.8149 8.71341 10.8306C8.65091 10.8462 8.59362 10.8748 8.54153 10.9165L5.94778 12.6509L6.65091 9.61963C6.65091 9.5988 6.65351 9.57536 6.65872 9.54932C6.66393 9.52327 6.66653 9.49463 6.66653 9.46338C6.66653 9.36963 6.64831 9.28369 6.61185 9.20557C6.57539 9.12744 6.52591 9.05713 6.46341 8.99463L4.43216 7.01025L7.16653 6.80713Z" fill="#9397AD"/>
</svg>
