<svg width="17" height="17" viewBox="0 0 17 17" fill="none" xmlns="http://www.w3.org/2000/svg">
<path d="M14.9415 6.26025C14.8999 6.13525 14.8269 6.03109 14.7228 5.94775C14.6186 5.86442 14.504 5.81755 14.379 5.80713H14.3634L10.5665 5.49463L8.9259 1.854C8.87382 1.73942 8.79309 1.64567 8.68372 1.57275C8.57434 1.49984 8.45194 1.46338 8.31653 1.46338C8.18111 1.46338 8.05872 1.49984 7.94934 1.57275C7.83997 1.64567 7.75924 1.73942 7.70715 1.854L6.06653 5.49463L2.26965 5.80713C2.09257 5.81755 1.94413 5.88786 1.82434 6.01807C1.70455 6.14827 1.64465 6.29671 1.64465 6.46338C1.64465 6.55713 1.66288 6.64567 1.69934 6.729C1.7358 6.81234 1.78528 6.88525 1.84778 6.94775L4.66028 9.68213L3.66028 13.979C3.66028 14.0103 3.65767 14.0363 3.65247 14.0571C3.64726 14.078 3.64465 14.104 3.64465 14.1353C3.64465 14.3228 3.70976 14.4816 3.83997 14.6118C3.97017 14.742 4.12903 14.8071 4.31653 14.8071C4.38944 14.8071 4.45715 14.7967 4.51965 14.7759C4.58215 14.755 4.63944 14.7238 4.69153 14.6821L8.31653 12.2759L11.9415 14.6821C11.9936 14.7238 12.0509 14.755 12.1134 14.7759C12.1759 14.7967 12.2436 14.8071 12.3165 14.8071C12.504 14.8071 12.6629 14.742 12.7931 14.6118C12.9233 14.4816 12.9884 14.3228 12.9884 14.1353C12.9884 14.104 12.9858 14.0728 12.9806 14.0415C12.9754 14.0103 12.9676 13.979 12.9572 13.9478L11.7384 9.68213L14.7697 6.96338C14.8634 6.88005 14.9285 6.77327 14.965 6.64307C15.0014 6.51286 14.9936 6.38525 14.9415 6.26025Z" fill="#FFBA08"/>
</svg>
