<svg width="21" height="21" viewBox="0 0 21 21" fill="none" xmlns="http://www.w3.org/2000/svg">
<path d="M19.0201 7.12622C18.942 7.02205 18.8444 6.93742 18.7272 6.87231C18.61 6.80721 18.4798 6.77466 18.3365 6.77466H6.94983L5.9928 4.45044C5.86259 4.15096 5.65751 3.90682 5.37756 3.71802C5.09762 3.52922 4.78837 3.43481 4.44983 3.43481H2.4967V5.09497H4.44983L8.39514 14.5872C8.46025 14.7434 8.56116 14.8671 8.69788 14.9583C8.83459 15.0494 8.9941 15.095 9.17639 15.095H15.8365C16.0058 15.095 16.1621 15.0461 16.3053 14.9485C16.4485 14.8508 16.5527 14.7239 16.6178 14.5676L19.1178 7.88794C19.1308 7.84888 19.1438 7.8033 19.1569 7.75122C19.1699 7.69914 19.1764 7.64705 19.1764 7.59497C19.1764 7.51685 19.1634 7.43547 19.1373 7.35083C19.1113 7.26619 19.0722 7.19132 19.0201 7.12622ZM15.2506 13.4348H9.72327L7.63342 8.43481H17.1256L15.2506 13.4348ZM10.8365 17.1848C10.8365 17.5364 10.7161 17.8326 10.4752 18.0735C10.2343 18.3144 9.93811 18.4348 9.58655 18.4348C9.23499 18.4348 8.93876 18.3144 8.69788 18.0735C8.45699 17.8326 8.33655 17.5364 8.33655 17.1848C8.33655 16.8333 8.45699 16.537 8.69788 16.2961C8.93876 16.0553 9.23499 15.9348 9.58655 15.9348C9.93811 15.9348 10.2343 16.0553 10.4752 16.2961C10.7161 16.537 10.8365 16.8333 10.8365 17.1848ZM16.6764 17.1848C16.6764 17.5364 16.5527 17.8326 16.3053 18.0735C16.0579 18.3144 15.7649 18.4348 15.4264 18.4348C15.0748 18.4348 14.7786 18.3144 14.5377 18.0735C14.2968 17.8326 14.1764 17.5364 14.1764 17.1848C14.1764 16.8333 14.2968 16.537 14.5377 16.2961C14.7786 16.0553 15.0748 15.9348 15.4264 15.9348C15.7649 15.9348 16.0579 16.0553 16.3053 16.2961C16.5527 16.537 16.6764 16.8333 16.6764 17.1848Z" fill="white"/>
</svg>
