<svg width="19" height="19" viewBox="0 0 19 19" fill="none" xmlns="http://www.w3.org/2000/svg">
<path d="M15.3107 3.16113H3.32239C2.90051 3.16113 2.54309 3.30762 2.25012 3.60059C1.95715 3.89355 1.81067 4.24512 1.81067 4.65527V13.6553C1.81067 14.0654 1.95715 14.417 2.25012 14.71C2.54309 15.0029 2.90051 15.1494 3.32239 15.1494H15.3107C15.7325 15.1494 16.09 15.0029 16.3829 14.71C16.6759 14.417 16.8224 14.0654 16.8224 13.6553V4.65527C16.8224 4.24512 16.6759 3.89355 16.3829 3.60059C16.09 3.30762 15.7325 3.16113 15.3107 3.16113ZM15.3107 4.65527V5.04199L9.31653 9.7002L3.32239 5.04199V4.65527H15.3107ZM3.32239 13.6553V6.94043L8.8595 11.2471C8.91809 11.2939 8.9884 11.332 9.07043 11.3613C9.15247 11.3906 9.2345 11.4053 9.31653 11.4053C9.39856 11.4053 9.48059 11.3906 9.56262 11.3613C9.64465 11.332 9.71497 11.2939 9.77356 11.2471L15.3107 6.94043V13.6553H3.32239Z" fill="#9397AD"/>
</svg>
