<svg width="21" height="21" viewBox="0 0 21 21" fill="none" xmlns="http://www.w3.org/2000/svg">
<path d="M3.38293 5.39941C3.96887 4.77441 4.70455 4.30241 5.58997 3.9834C6.47538 3.66439 7.49752 3.50488 8.65637 3.50488H9.47668V5.84863L8.81262 5.98535C8.23971 6.10254 7.75468 6.27181 7.35754 6.49316C6.96041 6.71452 6.65767 6.98796 6.44934 7.31348C6.34517 7.48275 6.26054 7.66829 6.19543 7.87012C6.13033 8.07194 6.09127 8.27702 6.07825 8.48535V8.50488H8.65637C8.87773 8.50488 9.06978 8.58626 9.23254 8.74902C9.3953 8.91178 9.47668 9.10384 9.47668 9.3252V15.165C9.47668 15.6208 9.31392 16.0114 8.9884 16.3369C8.66288 16.6624 8.27226 16.8252 7.81653 16.8252H2.81653C2.58215 16.8252 2.38359 16.7438 2.22083 16.5811C2.05806 16.4183 1.97668 16.2262 1.97668 16.0049V11.8252V9.40332C1.97668 9.35124 2.01575 8.88574 2.09387 8.00684C2.172 7.12793 2.60168 6.25879 3.38293 5.39941ZM16.9767 16.8252H11.9767C11.7553 16.8252 11.5633 16.7438 11.4005 16.5811C11.2378 16.4183 11.1564 16.2262 11.1564 16.0049V11.8252V9.40332C11.1564 9.35124 11.1922 8.88574 11.2638 8.00684C11.3354 7.12793 11.7684 6.25879 12.5626 5.39941C13.1486 4.77441 13.881 4.30241 14.7599 3.9834C15.6388 3.66439 16.6577 3.50488 17.8165 3.50488H18.6564V5.84863L17.9728 5.98535C17.4129 6.10254 16.9344 6.27181 16.5372 6.49316C16.1401 6.71452 15.8309 6.98796 15.6095 7.31348C15.5053 7.48275 15.424 7.66829 15.3654 7.87012C15.3068 8.07194 15.271 8.27702 15.2579 8.48535V8.50488H17.8165C18.0509 8.50488 18.2495 8.58626 18.4122 8.74902C18.575 8.91178 18.6564 9.10384 18.6564 9.3252V15.165C18.6564 15.6208 18.4936 16.0114 18.1681 16.3369C17.8426 16.6624 17.4454 16.8252 16.9767 16.8252Z" fill="white"/>
</svg>
