<svg width="48" height="45" viewBox="0 0 48 45" fill="none" xmlns="http://www.w3.org/2000/svg">
<g clip-path="url(#clip0_104_469)">
<path d="M10.5165 22.9448L4.4165 13.2448L23.3165 0.944824L22.8165 11.6448L10.5165 22.9448Z" fill="url(#paint0_linear_104_469)"/>
<path d="M22.8165 11.6448L23.3165 0.944824L42.7165 9.64482L38.6165 27.0448L12.5165 31.1448L10.5165 22.9448L22.8165 11.6448Z" fill="url(#paint1_linear_104_469)"/>
<path d="M31.5165 44.9449L12.6165 31.1449L38.7165 27.0449L43.3165 31.6449L31.5165 44.9449Z" fill="url(#paint2_linear_104_469)"/>
<path d="M38.6165 27.0448L43.2165 31.6448L47.3165 18.8448L42.7165 9.64478L38.6165 27.0448Z" fill="url(#paint3_linear_104_469)"/>
<path d="M12.6165 31.1449L31.5165 44.9449L12.6165 42.3449L0.316528 27.5449L12.6165 31.1449Z" fill="url(#paint4_linear_104_469)"/>
<path d="M4.41653 13.2449L0.316528 27.5449L12.6165 31.1449L10.6165 22.9449L4.41653 13.2449Z" fill="url(#paint5_linear_104_469)"/>
<path d="M31.5165 44.9449L12.6165 31.1449L38.7165 27.0449L43.3165 31.6449L31.5165 44.9449Z" fill="black" fill-opacity="0.17"/>
<path d="M38.6165 27.0448L43.2165 31.6448L47.3165 18.8448L42.7165 9.64478L38.6165 27.0448Z" fill="black" fill-opacity="0.1"/>
<path d="M12.6165 31.1449L31.5165 44.9449L12.6165 42.3449L0.316528 27.5449L12.6165 31.1449Z" fill="black" fill-opacity="0.23"/>
<path d="M4.41653 13.2449L0.316528 27.5449L12.6165 31.1449L10.6165 22.9449L4.41653 13.2449Z" fill="#C0C0C0" fill-opacity="0.05"/>
<path d="M10.5165 22.9448L4.4165 13.2448L23.3165 0.944824L22.8165 11.6448L10.5165 22.9448Z" fill="white" fill-opacity="0.15"/>
<path fill-rule="evenodd" clip-rule="evenodd" d="M10.5165 22.9448L22.8165 11.6448L23.3165 0.944824L4.4165 13.2448L10.5165 22.9448ZM10.6165 22.4448L22.5165 11.5448L23.0165 1.54482L4.8165 13.3448L10.6165 22.4448Z" fill="white" fill-opacity="0.15"/>
<path fill-rule="evenodd" clip-rule="evenodd" d="M23.1165 11.8448L10.9165 23.0448L12.8165 30.7448L38.4165 26.7448L42.4165 9.84482L23.6165 1.44482L23.1165 11.8448ZM22.8165 11.6448L10.5165 22.9448L12.5165 31.1448L38.6165 27.0448L42.7165 9.64482L23.3165 0.944824L22.8165 11.6448Z" fill="white" fill-opacity="0.15"/>
<path fill-rule="evenodd" clip-rule="evenodd" d="M31.4165 44.5449L42.8165 31.6449L38.5165 27.3449L13.3165 31.3449L31.4165 44.5449ZM31.5165 44.9449L43.2165 31.6449L38.6165 27.0449L12.5165 31.1449L31.5165 44.9449Z" fill="white" fill-opacity="0.15"/>
<path fill-rule="evenodd" clip-rule="evenodd" d="M43.2165 31.6448L47.3165 18.8448L42.7165 9.64478L38.6165 27.0448L43.2165 31.6448ZM39.0165 26.9448L43.1165 31.0448L47.0165 18.8448L42.8165 10.5448L39.0165 26.9448Z" fill="white" fill-opacity="0.15"/>
<path fill-rule="evenodd" clip-rule="evenodd" d="M12.4165 31.4449L1.21653 28.1449L12.7165 42.1449L30.3165 44.4449L12.4165 31.4449ZM12.6165 31.1449L0.316528 27.5449L12.6165 42.3449L31.5165 44.9449L12.6165 31.1449Z" fill="white" fill-opacity="0.15"/>
<path fill-rule="evenodd" clip-rule="evenodd" d="M0.716528 27.3449L12.2165 30.6449L10.3165 23.0449L4.51653 13.9449L0.716528 27.3449ZM0.316528 27.5449L12.6165 31.1449L10.6165 22.9449L4.51653 13.2449L0.316528 27.5449Z" fill="white" fill-opacity="0.15"/>
<path d="M24.0166 19.9449H27.5166C27.4166 16.8449 24.9166 14.7449 21.1166 14.7449C17.3166 14.7449 14.6166 16.8449 14.6166 19.9449C14.6166 22.4449 16.4166 23.9449 19.3166 24.6449L21.2166 25.1449C23.1166 25.6449 24.1166 26.1449 24.1166 27.2449C24.1166 28.5449 22.9166 29.3449 21.1166 29.3449C19.2166 29.3449 17.9166 28.4449 17.7166 26.7449H14.2166C14.3166 30.4449 16.9166 32.3449 21.1166 32.3449C25.3166 32.3449 27.7166 30.3449 27.7166 27.2449C27.7166 24.3449 25.5166 22.8449 22.6166 22.2449L21.1166 21.8449C19.5166 21.5449 18.3166 20.9449 18.3166 19.7449C18.3166 18.6449 19.3166 17.8449 21.0166 17.8449C22.8166 17.8449 23.9166 18.6449 24.0166 19.9449Z" fill="white"/>
<path d="M32.8165 20.2449H29.6165V32.1449H32.8165V20.2449Z" fill="white"/>
<path d="M31.6165 10.8447H30.4165L28.9165 11.7447V12.9447L30.3165 12.0447V16.8447H31.6165V10.8447Z" fill="white"/>
<path d="M33.0165 15.7447H35.9165V16.7447H37.1165V15.7447H37.8165V14.7447H37.1165V10.8447H35.5165L33.0165 14.7447V15.7447ZM35.9165 14.7447H34.3165L35.9165 12.2447V14.7447Z" fill="white"/>
</g>
<defs>
<linearGradient id="paint0_linear_104_469" x1="0.316504" y1="11.9448" x2="47.3165" y2="11.9448" gradientUnits="userSpaceOnUse">
<stop stop-color="#6366F1"/>
<stop offset="0.5" stop-color="#8B5CF6"/>
<stop offset="1" stop-color="#D946EF"/>
</linearGradient>
<linearGradient id="paint1_linear_104_469" x1="0.316541" y1="16.0448" x2="47.3165" y2="16.0448" gradientUnits="userSpaceOnUse">
<stop stop-color="#6366F1"/>
<stop offset="0.5" stop-color="#8B5CF6"/>
<stop offset="1" stop-color="#D946EF"/>
</linearGradient>
<linearGradient id="paint2_linear_104_469" x1="0.316516" y1="35.9949" x2="47.3165" y2="35.9949" gradientUnits="userSpaceOnUse">
<stop stop-color="#6366F1"/>
<stop offset="0.5" stop-color="#8B5CF6"/>
<stop offset="1" stop-color="#D946EF"/>
</linearGradient>
<linearGradient id="paint3_linear_104_469" x1="0.316513" y1="20.6448" x2="47.3165" y2="20.6448" gradientUnits="userSpaceOnUse">
<stop stop-color="#6366F1"/>
<stop offset="0.5" stop-color="#8B5CF6"/>
<stop offset="1" stop-color="#D946EF"/>
</linearGradient>
<linearGradient id="paint4_linear_104_469" x1="0.316528" y1="36.2449" x2="47.3165" y2="36.2449" gradientUnits="userSpaceOnUse">
<stop stop-color="#6366F1"/>
<stop offset="0.5" stop-color="#8B5CF6"/>
<stop offset="1" stop-color="#D946EF"/>
</linearGradient>
<linearGradient id="paint5_linear_104_469" x1="0.316528" y1="22.1949" x2="47.3165" y2="22.1949" gradientUnits="userSpaceOnUse">
<stop stop-color="#6366F1"/>
<stop offset="0.5" stop-color="#8B5CF6"/>
<stop offset="1" stop-color="#D946EF"/>
</linearGradient>
<clipPath id="clip0_104_469">
<rect width="47" height="44" fill="white" transform="translate(0.316528 0.944824)"/>
</clipPath>
</defs>
</svg>
