<svg width="49" height="49" viewBox="0 0 49 49" fill="none" xmlns="http://www.w3.org/2000/svg">
<path fill-rule="evenodd" clip-rule="evenodd" d="M11.8335 7.05699L4.53753 22.38C4.50853 22.435 4.49853 22.499 4.50853 22.561C4.51853 22.623 4.54953 22.679 4.59553 22.722L24.2915 41.605C24.3483 41.6557 24.4218 41.6838 24.498 41.6838C24.5742 41.6838 24.6477 41.6557 24.7045 41.605L44.4125 22.722C44.4585 22.679 44.4885 22.623 44.4995 22.561C44.5105 22.499 44.5005 22.436 44.4715 22.38L37.1765 7.05699C37.1571 7.00385 37.1214 6.95818 37.0746 6.92642C37.0277 6.89466 36.9721 6.87842 36.9155 6.87999H12.0925C12.0365 6.88199 11.9825 6.89899 11.9355 6.92999C11.8885 6.96099 11.8525 7.00499 11.8305 7.05699H11.8335Z" fill="#50AF95"/>
<path fill-rule="evenodd" clip-rule="evenodd" d="M27.0395 23.9477C26.8985 23.9597 26.1675 24.0067 24.5405 24.0067C23.2445 24.0067 22.3245 23.9717 21.9945 23.9477C16.9855 23.7237 13.2485 22.8517 13.2485 21.8137C13.2485 20.7757 16.9855 19.8927 21.9945 19.6687V23.0747L24.5525 23.1567L27.0275 23.0747V19.6687C32.0255 19.8927 35.7615 20.7647 35.7615 21.8017C35.7615 22.8387 32.0355 23.7247 27.0395 23.9477ZM27.0395 19.3277V16.2747H34.0175V11.6187H15.0175V16.2747H21.9955V19.3277C16.3255 19.5887 12.0595 20.7067 12.0595 22.0617C12.0595 23.4167 16.3265 24.5257 21.9955 24.7957V34.5676H27.0405V24.7957C32.6985 24.5347 36.9535 23.4167 36.9535 22.0727C36.9535 20.7287 32.6975 19.5857 27.0395 19.3277Z" fill="white"/>
</svg>
