<svg width="138" height="27" viewBox="0 0 138 27" fill="none" xmlns="http://www.w3.org/2000/svg">
<path d="M21.4256 11.8853C21.0232 12.2878 20.7213 12.6902 20.5201 13.1933C20.3189 13.6963 20.3189 14.1994 20.3189 14.8031C20.4195 15.4067 20.3189 16.111 20.1177 16.7147C19.9165 17.3183 19.514 17.8214 19.1116 18.3245C18.7091 18.7269 18.1055 19.1293 17.5018 19.3306C16.8981 19.5318 16.2945 19.6324 15.5902 19.5318C14.7853 19.4312 14.081 19.6324 13.3767 20.0348C12.6725 20.4373 12.1694 20.9403 11.8676 21.6446C11.5712 22.3423 11.467 23.1065 11.5657 23.8581C11.6663 24.5623 12.0688 25.2666 12.5718 25.8703C13.0749 26.3733 13.7792 26.7758 14.5841 26.8764C15.3356 26.9752 16.0999 26.871 16.7975 26.5746C17.5018 26.2727 18.1055 25.7697 18.4073 25.0654C18.7091 24.3611 18.9103 23.6568 18.9103 22.852C18.8097 22.2483 18.9103 21.544 19.1116 20.9403C19.3128 20.3367 19.7152 19.8336 20.1177 19.3306C20.5201 18.9281 21.1238 18.5257 21.7275 18.3245C22.3311 18.1232 22.9348 18.0226 23.6391 18.1232C24.2427 18.2238 24.8464 18.1232 25.4501 17.8214C26.0537 17.6202 26.5568 17.2177 26.8586 16.7147C27.2611 16.2116 27.4623 15.608 27.5629 15.0043C27.6635 14.4006 27.5629 13.797 27.3617 13.1933C27.1605 12.5896 26.758 12.0866 26.3556 11.6841C25.8525 11.2817 25.3495 10.9798 24.7458 10.8792C24.1421 10.7786 23.5385 10.7786 22.9348 10.9798C22.4317 11.0805 21.9287 11.3823 21.4256 11.8853ZM13.9804 17.1171C14.4835 17.1171 15.0871 17.1171 15.5902 16.9159C16.0932 16.7147 16.5963 16.4128 16.8981 16.0104C17.3006 15.608 17.6024 15.2055 17.8036 14.7025C18.0048 14.1994 18.0048 13.6963 18.0048 13.0927C17.9042 12.489 18.0048 11.7847 18.2061 11.1811C18.4073 10.5774 18.8097 10.0743 19.2122 9.57129C19.6146 9.16884 20.2183 8.7664 20.822 8.56517C21.4256 8.36395 22.0293 8.26334 22.7336 8.36395C23.5385 8.46456 24.2427 8.26334 24.947 7.8609C25.6513 7.45845 26.1543 6.9554 26.4562 6.25112C26.7526 5.55347 26.8568 4.7892 26.758 4.03767C26.6574 3.3334 26.255 2.62912 25.7519 2.02545C25.2488 1.5224 24.5446 1.11995 23.7397 1.01934C22.9881 0.920567 22.2239 1.02479 21.5262 1.32117C20.822 1.62301 20.2183 2.12606 19.9165 2.83034C19.514 3.53462 19.4134 4.2389 19.4134 5.04379C19.514 5.64745 19.4134 6.35173 19.2122 6.9554C19.011 7.55906 18.6085 8.06212 18.2061 8.56517C17.8036 8.96762 17.2 9.37006 16.5963 9.57129C15.9926 9.77251 15.389 9.87312 14.6847 9.77251C14.1816 9.6719 13.578 9.77251 13.0749 9.97373C12.5718 10.175 12.0688 10.4768 11.767 10.8792C11.3645 11.2817 11.0627 11.6841 10.8615 12.1872C10.6602 12.6902 10.6602 13.1933 10.6602 13.797C10.7608 14.4006 10.6602 15.1049 10.459 15.7086C10.2578 16.3122 9.85534 16.8153 9.4529 17.3183C9.05046 17.7208 8.44679 18.1232 7.84312 18.3245C7.23946 18.4251 6.53518 18.5257 5.93151 18.5257C5.12662 18.4251 4.42235 18.6263 3.71807 19.0287C3.01379 19.4312 2.51073 19.9342 2.2089 20.6385C1.91251 21.3362 1.80829 22.1004 1.90707 22.852C2.00768 23.5562 2.41012 24.2605 2.91318 24.8642C3.41623 25.3672 4.12051 25.7697 4.9254 25.8703C5.67693 25.9691 6.4412 25.8648 7.13884 25.5685C7.84312 25.2666 8.44679 24.7636 8.74862 24.0593C9.15107 23.355 9.25168 22.6507 9.25168 21.8458C9.15107 21.2422 9.25168 20.5379 9.4529 19.9342C9.65412 19.3306 10.0566 18.8275 10.459 18.3245C10.8615 17.922 11.4651 17.5196 12.0688 17.3183L13.9804 17.1171ZM7.23946 15.1049C7.6419 14.7025 7.94373 14.3 8.04435 13.797C8.14496 13.2939 8.24557 12.7908 8.24557 12.1872C8.14496 11.5835 8.24557 10.8792 8.44679 10.2756C8.64801 9.6719 9.05046 9.16884 9.4529 8.66579C9.85534 8.26334 10.459 7.8609 11.0627 7.65967C11.6663 7.45845 12.27 7.35784 12.9743 7.45845C13.7792 7.55906 14.4835 7.35784 15.1877 6.9554C15.892 6.55295 16.3951 6.0499 16.6969 5.34562C16.9933 4.64797 17.0975 3.8837 16.9987 3.13217C16.8981 2.4279 16.4957 1.72362 15.9926 1.11995C15.4896 0.616896 14.7853 0.214452 13.9804 0.113841C13.2289 0.0150669 12.4646 0.119286 11.767 0.415674C11.0627 0.717508 10.459 1.22056 10.1572 1.92484C9.75473 2.62912 9.65412 3.3334 9.65412 4.13829C9.75473 4.74195 9.65412 5.44623 9.4529 6.0499C9.25168 6.65356 8.84923 7.15662 8.44679 7.65967C8.04434 8.06212 7.44068 8.46456 6.83701 8.66579C6.23334 8.86701 5.62968 8.96762 4.9254 8.86701C4.32173 8.7664 3.71807 8.86701 3.1144 9.16884C2.51073 9.37006 2.00768 9.77251 1.70585 10.2756C1.3034 10.7786 1.10218 11.3823 1.00157 11.986C0.900956 12.5896 1.00157 13.1933 1.20279 13.797C1.40401 14.4006 1.80646 14.9037 2.2089 15.3061C2.71196 15.7086 3.21501 16.0104 3.81868 16.111C4.42234 16.2116 5.02601 16.2116 5.62968 16.0104C6.33396 15.9098 6.83701 15.608 7.23946 15.1049ZM38.4289 5.1444H41.4472V19.733H38.4289V5.1444ZM43.1576 14.7025C43.1576 13.6963 43.4595 12.5896 44.0631 11.7847C44.6668 10.8792 45.4717 10.2756 46.4778 9.87312C47.4839 9.47067 48.49 9.37006 49.4961 9.57129C50.5022 9.77251 51.5083 10.2756 52.2126 10.9798C52.9169 11.6841 53.42 12.6902 53.6212 13.6963C53.8224 14.7025 53.7218 15.8092 53.3193 16.7147C52.9169 17.7208 52.2126 18.5257 51.4077 19.1293C50.5466 19.7142 49.5309 20.0294 48.49 20.0348C47.7857 20.0348 47.0815 19.9342 46.4778 19.6324C45.8741 19.3306 45.2705 19.0287 44.7674 18.5257C44.2643 18.0226 43.8619 17.419 43.6607 16.8153C43.3259 16.1616 43.1534 15.4369 43.1576 14.7025ZM50.7035 14.7025C50.7035 14.3 50.5022 13.797 50.301 13.4951C49.9992 13.0927 49.6973 12.8915 49.2949 12.6902C48.8925 12.489 48.3894 12.489 47.987 12.5896C47.5845 12.6902 47.1821 12.8915 46.8802 13.1933C46.5784 13.4951 46.3772 13.8976 46.2766 14.4006C46.176 14.8031 46.2766 15.3061 46.3772 15.7086C46.5784 16.111 46.8802 16.5135 47.1821 16.7147C47.5845 16.9159 47.987 17.1171 48.49 17.1171C48.7918 17.1171 49.0937 17.1171 49.3955 16.9159C49.6973 16.8153 49.8986 16.6141 50.2004 16.4128C50.4016 16.2116 50.6028 15.9098 50.7035 15.608V14.7025ZM65.5939 9.6719V19.1293C65.5939 22.4495 62.978 23.8581 60.3621 23.8581C59.4566 23.9587 58.4505 23.7575 57.6456 23.355C56.8407 22.9526 56.1365 22.2483 55.6334 21.4434L58.1487 19.9342C58.3499 20.3367 58.6517 20.7391 59.0542 20.9403C59.4629 21.1353 59.9093 21.2383 60.3621 21.2422C60.664 21.2422 60.9658 21.2422 61.2676 21.1416C61.5695 21.041 61.7707 20.9403 62.0725 20.7391C62.2727 20.5294 62.4421 20.2923 62.5756 20.0348C62.6762 19.733 62.6762 19.4312 62.6762 19.1293V18.2238C62.3334 18.6655 61.8831 19.0119 61.3682 19.23C60.8652 19.4312 60.3621 19.5318 59.7585 19.5318C58.4505 19.5318 57.2432 18.9281 56.2371 18.0226C55.3316 17.1171 54.8285 15.8092 54.8285 14.5012C54.8285 13.1933 55.3316 11.8853 56.2371 10.9798C57.1426 10.0743 58.3499 9.47067 59.7585 9.47067C60.3089 9.47326 60.8543 9.57552 61.3682 9.77251C61.8713 9.97373 62.2737 10.3762 62.6762 10.7786V9.77251L65.5939 9.6719ZM62.6762 14.5012C62.6762 13.9982 62.5756 13.4951 62.2737 13.0927C61.9719 12.6902 61.6701 12.3884 61.167 12.1872C60.7324 11.9669 60.2373 11.8962 59.7585 11.986C59.2554 12.0866 58.853 12.2878 58.4505 12.5896C58.1487 12.8915 57.8468 13.3945 57.7462 13.797C57.6456 14.3 57.6456 14.8031 57.8468 15.2055C58.0481 15.608 58.3499 16.0104 58.7523 16.3122C59.1548 16.6141 59.6579 16.7147 60.0603 16.7147C60.3621 16.7147 60.664 16.7147 60.9658 16.6141C61.2676 16.5135 61.5695 16.3122 61.7707 16.111C61.9719 15.9098 62.1731 15.608 62.2737 15.3061C62.6762 15.1049 62.6762 14.8031 62.6762 14.5012ZM67.3043 14.7025C67.3043 13.6963 67.6061 12.5896 68.2098 11.7847C68.8135 10.8792 69.6184 10.2756 70.6245 9.87312C71.6306 9.47067 72.6367 9.37006 73.6428 9.57129C74.6489 9.77251 75.655 10.2756 76.3593 10.9798C77.0636 11.6841 77.5666 12.6902 77.7679 13.6963C77.9691 14.7025 77.8685 15.8092 77.466 16.7147C77.0636 17.7208 76.3593 18.5257 75.5544 19.1293C74.6933 19.7142 73.6776 20.0294 72.6367 20.0348C71.9324 20.0348 71.2281 19.9342 70.6245 19.6324C70.0208 19.3306 69.4171 19.0287 68.9141 18.5257C68.411 18.0226 68.0086 17.419 67.8073 16.8153C67.4726 16.1616 67.3001 15.4369 67.3043 14.7025ZM74.8501 14.7025C74.8501 14.3 74.6489 13.797 74.4477 13.4951C74.1458 13.0927 73.844 12.8915 73.4416 12.6902C73.0391 12.489 72.5361 12.489 72.1336 12.5896C71.7312 12.6902 71.3287 12.8915 70.9263 13.1933C70.6245 13.4951 70.4232 13.8976 70.3226 14.4006C70.222 14.8031 70.3226 15.3061 70.4232 15.7086C70.5238 16.111 70.9263 16.5135 71.2281 16.7147C71.6306 16.9159 72.033 17.1171 72.5361 17.1171C72.8379 17.1171 73.1397 17.1171 73.4416 16.9159C73.7434 16.8153 73.9446 16.6141 74.2465 16.4128C74.4477 16.2116 74.6489 15.9098 74.7495 15.608C74.8501 15.3061 74.8501 15.0043 74.8501 14.7025ZM79.277 7.05601C79.2689 6.69719 79.3746 6.34501 79.5788 6.0499C79.7801 5.74806 80.0819 5.54684 80.3837 5.34562C80.6856 5.24501 81.088 5.1444 81.3898 5.24501C81.6917 5.34562 82.0941 5.44623 82.2954 5.74806C82.4966 5.94929 82.6978 6.35173 82.7984 6.65356C82.899 6.9554 82.7984 7.35784 82.6978 7.65967C82.5972 7.96151 82.2953 8.26334 81.9935 8.46456C81.6984 8.66884 81.3462 8.77449 80.9874 8.7664C80.4843 8.7664 80.0819 8.56517 79.6795 8.26334C79.4782 7.96151 79.277 7.45845 79.277 7.05601ZM79.5788 9.6719H82.5972V19.6324H79.5788V9.6719ZM95.4754 14.7025C95.4754 15.4067 95.3748 16.0104 95.1736 16.6141C94.9723 17.2177 94.5699 17.8214 94.1675 18.3245C93.765 18.8275 93.1613 19.23 92.5577 19.5318C91.954 19.8336 91.3503 19.9342 90.6461 20.0348C90.0424 20.0348 89.5393 19.9342 89.0363 19.733C88.5332 19.5318 88.0302 19.23 87.7284 18.8275V23.7575H84.71V9.6719H87.7284V10.5774C88.1308 10.175 88.5332 9.87312 89.0363 9.6719C89.5503 9.47491 90.0957 9.37264 90.6461 9.37006C91.3503 9.37006 91.954 9.57129 92.5577 9.87312C93.1613 10.175 93.6644 10.5774 94.1675 11.0805C94.5699 11.5835 94.9723 12.1872 95.1736 12.7908C95.3748 13.3945 95.4754 13.9982 95.4754 14.7025ZM92.4571 14.7025C92.4571 14.1994 92.2558 13.797 92.0546 13.3945C91.7528 12.9921 91.451 12.6902 90.9479 12.5896C90.5455 12.3884 90.0424 12.3884 89.5393 12.489C89.0363 12.5896 88.6339 12.7908 88.332 13.1933C88.0302 13.4951 87.829 13.9982 87.7284 14.4006C87.6277 14.9037 87.7284 15.3061 87.829 15.8092C88.0302 16.2116 88.332 16.6141 88.7345 16.8153C89.1369 17.1171 89.5393 17.2177 90.0424 17.2177C90.3442 17.2177 90.6461 17.2177 90.9479 17.0165C91.2497 16.9159 91.5516 16.7147 91.7528 16.5135C91.954 16.3122 92.1552 16.0104 92.2559 15.7086C92.4571 15.3061 92.4571 15.0043 92.4571 14.7025ZM104.631 16.6141C104.631 18.9281 102.619 19.8336 100.506 19.8336C99.6005 19.9342 98.7956 19.733 97.9907 19.3306C97.1858 18.9281 96.5821 18.2238 96.1797 17.5196L98.7956 16.0104C98.8962 16.4128 99.0974 16.7147 99.3992 16.9159C99.7005 17.107 100.049 17.2115 100.405 17.2177C101.11 17.2177 101.512 17.0165 101.512 16.6141C101.512 15.5073 96.5821 16.111 96.5821 12.6902C96.5821 10.4768 98.3931 9.47067 100.506 9.47067C101.311 9.47067 102.015 9.6719 102.719 9.97373C103.396 10.3487 103.954 10.9065 104.329 11.5835L101.814 12.9921C101.713 12.6902 101.512 12.489 101.311 12.3884C101.11 12.2878 100.808 12.1872 100.506 12.1872C100.003 12.1872 99.7011 12.3884 99.7011 12.7908C99.8017 13.6963 104.631 12.9921 104.631 16.6141ZM115.598 9.6719V19.6324H112.579V18.7269C112.277 19.1293 111.774 19.4312 111.271 19.6324C110.768 19.8336 110.265 19.9342 109.662 19.9342C107.649 19.9342 105.939 18.5257 105.939 15.8092V9.6719H108.957V15.3061C108.957 15.5073 108.957 15.8092 109.058 16.0104C109.159 16.2116 109.259 16.4128 109.46 16.6141C109.662 16.8153 109.863 16.9159 110.064 17.0165C110.265 17.1171 110.567 17.1171 110.768 17.1171C111.875 17.1171 112.579 16.5135 112.579 15.1049V9.6719H115.598ZM132.702 13.4951V19.6324H129.683V13.797C129.683 12.7908 129.18 12.1872 128.275 12.1872C127.269 12.1872 126.765 12.8915 126.765 14.0988V19.733H123.747V13.8976C123.747 12.8915 123.244 12.2878 122.339 12.2878C121.332 12.2878 120.829 12.9921 120.829 14.1994V19.8336H117.811V9.87312H120.829V10.7786C121.139 10.37 121.558 10.0563 122.037 9.87312C122.54 9.6719 123.043 9.57129 123.546 9.57129C124.049 9.57129 124.552 9.6719 125.055 9.87312C125.558 10.0743 125.86 10.4768 126.162 10.8792C126.505 10.4376 126.955 10.0912 127.47 9.87312C127.984 9.67613 128.529 9.57387 129.08 9.57129C131.192 9.37006 132.702 11.0805 132.702 13.4951ZM135.217 9.57129C135.802 9.56604 136.362 9.33115 136.776 8.91718C137.19 8.50321 137.425 7.94326 137.43 7.35784C137.425 6.77242 137.19 6.21247 136.776 5.7985C136.362 5.38453 135.802 5.14965 135.217 5.1444C134.631 5.14965 134.071 5.38453 133.657 5.7985C133.243 6.21247 133.009 6.77242 133.003 7.35784C133.003 8.66579 134.009 9.57129 135.217 9.57129Z" fill="#B4B7C9"/>
</svg>
